<svg id="svg" version="1.1" xmlns="http://www.w3.org/2000/svg" xmlns:xlink="http://www.w3.org/1999/xlink" width="400" height="290.547263681592" viewBox="0, 0, 400,290.547263681592"><g id="svgg"><path id="path0" d="M204.191 62.058 C 204.019 62.740,202.616 63.077,202.616 62.437 C 202.616 62.312,201.962 62.209,201.163 62.209 C 199.903 62.209,199.709 62.287,199.709 62.791 C 199.709 63.241,199.516 63.372,198.847 63.372 C 198.276 63.372,197.878 63.573,197.667 63.968 C 197.426 64.417,197.141 64.532,196.511 64.432 C 195.724 64.308,195.047 65.361,195.288 66.334 C 195.378 66.701,194.133 66.923,193.808 66.599 C 193.348 66.138,192.641 66.202,192.827 66.687 C 192.913 66.911,192.786 67.336,192.546 67.632 C 192.305 67.927,192.185 68.014,192.280 67.825 C 192.374 67.637,192.286 67.387,192.083 67.270 C 191.881 67.153,191.803 67.155,191.909 67.275 C 192.185 67.582,191.555 69.267,191.014 69.669 C 190.605 69.972,190.610 70.061,191.061 70.559 C 191.628 71.186,191.275 71.802,190.349 71.802 C 189.984 71.802,189.826 72.023,189.826 72.529 C 189.826 73.062,189.671 73.256,189.244 73.256 C 188.776 73.256,188.663 73.450,188.663 74.252 C 188.663 74.943,188.517 75.277,188.186 75.342 C 187.544 75.469,187.592 80.893,188.243 81.894 C 188.474 82.248,188.663 83.196,188.663 84.001 C 188.663 85.351,188.717 85.465,189.358 85.465 C 190.163 85.465,190.624 86.321,190.059 86.766 C 189.296 87.366,189.630 88.471,190.768 89.109 C 192.255 89.943,192.302 90.019,191.850 90.862 C 191.447 91.617,191.879 92.353,192.501 91.969 C 192.628 91.891,192.733 91.979,192.733 92.166 C 192.733 92.556,193.923 93.883,194.279 93.890 C 194.780 93.901,195.364 94.712,194.983 94.866 C 194.770 94.952,194.831 95.022,195.131 95.035 C 195.812 95.066,195.901 98.256,195.221 98.256 C 194.650 98.256,194.322 98.852,194.748 99.116 C 195.207 99.400,195.040 102.180,194.564 102.180 C 193.895 102.180,193.636 102.773,193.548 104.506 C 193.487 105.710,193.347 106.228,193.096 106.177 C 192.896 106.137,192.748 106.203,192.767 106.323 C 193.028 107.976,192.677 110.174,192.151 110.174 C 191.831 110.174,191.570 110.313,191.570 110.482 C 191.570 110.652,191.733 110.698,191.933 110.585 C 192.224 110.421,192.224 110.458,191.933 110.771 C 191.730 110.990,191.570 111.899,191.570 112.832 C 191.570 113.750,191.440 114.580,191.282 114.678 C 191.114 114.782,191.065 114.639,191.164 114.332 C 191.306 113.894,191.283 113.880,191.020 114.244 C 190.848 114.484,190.705 115.424,190.702 116.332 C 190.699 117.664,190.597 118.016,190.175 118.150 C 189.727 118.292,189.670 118.579,189.771 120.175 C 189.879 121.864,189.834 122.051,189.276 122.228 C 188.750 122.395,188.663 122.650,188.663 124.028 C 188.663 125.329,188.539 125.742,188.009 126.208 C 187.553 126.607,187.465 126.828,187.720 126.933 C 187.921 127.016,188.026 127.179,187.955 127.295 C 187.883 127.411,187.794 128.182,187.756 129.007 C 187.701 130.208,187.611 130.445,187.306 130.193 C 186.753 129.733,186.556 130.453,186.674 132.502 C 186.751 133.829,186.682 134.208,186.368 134.186 C 186.146 134.170,185.900 134.339,185.822 134.561 C 185.744 134.783,185.795 134.893,185.936 134.806 C 186.077 134.719,186.147 135.354,186.092 136.219 C 186.038 137.083,185.874 137.807,185.729 137.827 C 185.584 137.847,185.313 137.880,185.126 137.900 C 184.939 137.920,184.728 138.112,184.656 138.328 C 184.553 138.637,184.651 138.652,185.122 138.400 C 185.889 137.990,186.047 137.999,186.047 138.453 C 186.047 139.016,184.953 139.871,184.779 139.444 C 184.702 139.254,184.629 139.657,184.616 140.338 C 184.603 141.020,184.749 141.827,184.939 142.132 C 185.321 142.743,184.844 143.644,184.202 143.523 C 183.811 143.449,183.763 145.778,184.138 146.602 C 184.322 147.004,184.233 147.166,183.759 147.290 C 183.261 147.420,183.140 147.673,183.140 148.580 C 183.140 149.201,183.008 149.709,182.846 149.709 C 182.668 149.709,182.690 149.929,182.902 150.267 C 183.283 150.877,182.812 151.786,182.180 151.662 C 181.556 151.540,181.433 154.012,182.054 154.174 C 182.789 154.366,182.215 155.523,181.385 155.523 C 180.703 155.523,180.574 157.172,181.177 158.162 C 181.490 158.676,181.450 158.833,180.887 159.295 C 180.339 159.744,180.233 160.119,180.233 161.596 C 180.233 163.236,180.181 163.374,179.506 163.543 C 178.759 163.731,178.356 165.988,179.070 165.988 C 179.653 165.988,179.364 167.205,178.743 167.367 C 178.180 167.514,178.138 167.677,178.275 169.190 C 178.443 171.036,178.321 171.394,177.471 171.553 C 176.763 171.686,176.531 173.041,177.050 174.010 C 177.557 174.958,177.198 175.680,176.305 175.510 C 175.442 175.345,175.215 177.241,176.017 177.907 C 176.663 178.443,176.548 179.039,175.727 179.413 C 174.947 179.769,174.716 181.194,175.270 182.230 C 175.737 183.101,175.088 183.539,173.100 183.697 C 172.935 183.710,172.568 184.114,172.284 184.594 C 171.858 185.315,171.673 185.416,171.223 185.176 C 170.326 184.695,167.733 184.803,167.733 185.320 C 167.733 185.603,167.449 185.756,166.925 185.756 C 166.017 185.756,165.203 186.528,165.345 187.254 C 165.489 187.992,162.913 190.507,162.203 190.321 C 161.886 190.238,161.695 190.280,161.777 190.413 C 161.860 190.547,161.664 190.739,161.341 190.842 C 160.992 190.952,160.754 191.284,160.751 191.662 C 160.748 192.167,160.692 192.209,160.476 191.869 C 160.068 191.223,159.757 191.750,159.838 192.950 C 159.878 193.538,159.818 193.927,159.706 193.814 C 159.365 193.473,158.721 194.212,158.721 194.944 L 158.721 195.630 142.175 195.708 C 133.075 195.750,125.634 195.719,125.640 195.640 C 125.681 195.053,125.520 194.767,125.145 194.767 C 124.888 194.767,124.707 194.499,124.705 194.113 C 124.699 193.251,124.274 192.608,123.873 192.856 C 123.672 192.980,123.617 192.886,123.727 192.602 C 123.957 192.002,123.600 190.630,123.268 190.835 C 123.125 190.924,122.923 190.733,122.821 190.411 C 122.719 190.089,122.448 189.826,122.219 189.826 C 121.990 189.826,121.802 189.702,121.802 189.550 C 121.802 189.168,120.494 187.791,120.131 187.791 C 119.969 187.791,119.767 187.529,119.683 187.209 C 119.574 186.792,119.287 186.628,118.663 186.628 C 118.159 186.628,117.724 186.445,117.627 186.192 C 117.529 185.935,117.093 185.756,116.566 185.756 C 115.897 185.756,115.694 185.636,115.758 185.280 C 115.869 184.659,115.193 184.571,113.856 185.030 C 112.774 185.402,111.632 184.711,112.093 183.964 C 112.176 183.830,110.261 183.721,107.839 183.721 C 103.640 183.721,103.427 183.749,103.278 184.318 C 103.176 184.707,102.907 184.899,102.506 184.867 C 101.428 184.783,101.163 184.873,101.163 185.320 C 101.163 185.624,100.856 185.756,100.145 185.756 C 99.435 185.756,99.128 185.887,99.128 186.192 C 99.128 186.596,98.422 186.781,97.417 186.641 C 97.157 186.604,97.078 186.751,97.194 187.053 C 97.301 187.331,97.199 187.589,96.943 187.687 C 96.706 187.778,96.512 188.031,96.512 188.248 C 96.512 188.725,95.516 189.307,95.199 189.016 C 95.074 188.902,95.045 189.103,95.133 189.463 C 95.229 189.851,95.179 190.046,95.011 189.942 C 94.630 189.707,93.023 191.536,93.023 192.204 C 93.023 192.494,92.827 192.733,92.587 192.733 C 92.283 192.733,92.151 193.039,92.151 193.750 C 92.151 194.426,92.015 194.767,91.746 194.767 C 91.243 194.767,90.988 195.399,90.988 196.650 C 90.988 197.237,90.818 197.677,90.552 197.780 C 90.195 197.916,90.116 198.638,90.116 201.754 C 90.116 205.233,90.399 206.906,90.930 206.576 C 91.042 206.507,91.114 207.029,91.090 207.736 C 91.056 208.731,91.171 209.089,91.599 209.318 C 91.903 209.480,92.151 209.846,92.151 210.130 C 92.151 210.414,92.405 210.919,92.715 211.251 C 93.025 211.584,93.212 211.924,93.129 212.006 C 93.047 212.089,93.251 212.242,93.583 212.348 C 93.927 212.457,94.186 212.787,94.186 213.118 C 94.186 213.437,94.317 213.616,94.477 213.517 C 94.637 213.419,94.767 213.476,94.767 213.646 C 94.767 213.815,94.637 213.953,94.477 213.953 C 94.317 213.953,94.186 214.093,94.186 214.264 C 94.186 214.449,94.438 214.494,94.811 214.376 C 95.298 214.221,95.399 214.276,95.266 214.623 C 95.036 215.222,95.813 215.485,96.516 215.046 C 97.184 214.629,97.679 214.989,97.751 215.945 C 97.777 216.289,97.915 216.570,98.058 216.570 C 98.201 216.570,98.237 216.781,98.138 217.039 C 97.986 217.435,98.116 217.478,98.979 217.316 C 99.646 217.191,100.000 217.236,100.000 217.446 C 100.000 217.622,100.116 217.695,100.258 217.607 C 100.400 217.520,100.498 217.676,100.476 217.954 C 100.448 218.312,100.690 218.487,101.308 218.554 C 101.788 218.607,102.311 218.789,102.471 218.960 C 102.673 219.176,102.636 219.200,102.353 219.038 C 102.080 218.882,102.013 218.916,102.152 219.141 C 102.455 219.630,104.666 219.553,105.240 219.034 C 105.958 218.385,106.899 218.838,106.613 219.695 C 106.474 220.112,111.453 220.263,111.805 219.853 C 111.983 219.646,112.733 219.477,113.477 219.477 C 114.369 219.477,114.801 219.359,114.753 219.130 C 114.713 218.939,115.073 218.698,115.552 218.596 L 116.424 218.410 115.552 218.260 C 114.722 218.117,114.717 218.108,115.446 218.067 C 115.944 218.038,116.264 217.821,116.363 217.442 C 116.543 216.755,117.386 216.667,117.632 217.309 C 117.785 217.707,117.865 217.703,118.343 217.270 C 118.639 217.002,118.823 216.688,118.752 216.573 C 118.681 216.457,118.935 216.423,119.317 216.496 C 119.807 216.589,120.202 216.409,120.660 215.882 C 121.017 215.472,121.412 215.200,121.538 215.278 C 121.665 215.356,121.743 214.861,121.713 214.178 C 121.673 213.288,121.765 212.958,122.037 213.014 C 122.246 213.057,122.812 212.698,123.295 212.215 C 123.778 211.732,124.293 211.337,124.441 211.337 C 124.589 211.337,124.709 210.879,124.709 210.320 C 124.709 209.496,124.820 209.302,125.291 209.302 C 125.678 209.302,125.872 209.109,125.872 208.721 C 125.872 208.146,126.066 208.140,142.279 208.140 L 158.686 208.140 158.776 209.222 C 158.859 210.211,158.966 210.332,160.029 210.629 C 161.251 210.970,161.643 211.636,161.045 212.356 C 160.674 212.803,160.921 213.484,161.357 213.214 C 161.506 213.122,161.628 213.169,161.628 213.319 C 161.628 213.468,162.003 213.665,162.461 213.757 C 163.106 213.886,163.334 214.127,163.475 214.830 C 163.593 215.419,163.775 215.663,163.995 215.527 C 164.199 215.401,164.256 215.443,164.139 215.633 C 163.808 216.168,165.216 217.437,165.933 217.250 C 166.379 217.133,166.621 217.243,166.763 217.627 C 167.019 218.319,167.429 218.595,168.210 218.600 C 168.553 218.603,168.908 218.801,169.000 219.041 C 169.115 219.340,169.582 219.477,170.485 219.477 C 171.345 219.477,171.802 219.603,171.802 219.840 C 171.802 220.108,172.601 220.203,174.828 220.203 C 177.401 220.203,177.804 220.142,177.517 219.793 C 177.230 219.442,177.282 219.436,177.869 219.749 C 178.301 219.979,178.485 219.997,178.361 219.796 C 178.225 219.576,178.789 219.477,180.184 219.477 C 181.630 219.477,182.249 219.363,182.358 219.077 C 182.443 218.858,182.978 218.591,183.548 218.484 C 184.118 218.377,184.571 218.197,184.554 218.084 C 184.442 217.317,184.652 217.126,185.467 217.254 C 185.954 217.331,186.268 217.274,186.177 217.127 C 185.986 216.818,187.473 215.430,188.009 215.416 C 188.209 215.411,188.372 215.211,188.372 214.971 C 188.372 214.564,188.737 214.397,189.366 214.517 C 189.513 214.545,189.448 214.339,189.221 214.059 C 188.994 213.780,188.940 213.630,189.102 213.727 C 189.756 214.117,190.592 212.879,190.044 212.330 C 189.305 211.592,190.318 210.508,191.861 210.387 C 192.400 210.344,192.537 209.095,192.097 208.222 C 191.711 207.456,192.262 206.571,193.003 206.766 C 193.408 206.872,193.443 206.353,193.314 202.134 C 193.234 199.521,193.267 197.383,193.387 197.383 C 193.507 197.383,193.605 197.253,193.605 197.093 C 193.605 196.933,193.343 196.802,193.023 196.802 C 192.492 196.802,192.172 195.234,192.412 193.809 C 192.433 193.681,192.285 193.599,192.083 193.625 C 191.314 193.726,190.988 193.590,190.988 193.169 C 190.988 192.929,191.119 192.733,191.279 192.733 C 191.853 192.733,191.555 192.131,190.849 191.863 C 190.369 191.680,190.185 191.439,190.298 191.143 C 190.408 190.857,190.302 190.698,190.002 190.698 C 189.582 190.698,189.339 189.764,189.517 188.832 C 189.545 188.685,189.339 188.750,189.059 188.977 C 188.735 189.240,188.630 189.258,188.769 189.026 C 189.084 188.503,188.644 188.578,188.251 189.115 C 187.626 189.970,186.642 188.977,186.506 187.355 C 186.492 187.195,186.220 187.061,185.900 187.057 C 185.159 187.048,185.262 186.069,186.064 185.502 C 186.513 185.184,186.628 184.755,186.628 183.386 C 186.628 182.127,186.744 181.623,187.064 181.500 C 187.389 181.376,187.500 180.858,187.500 179.475 C 187.500 178.182,187.611 177.616,187.863 177.616 C 188.115 177.616,188.227 177.059,188.227 175.799 C 188.227 174.800,188.305 173.983,188.400 173.983 C 189.032 173.983,189.442 173.095,189.503 171.593 C 189.541 170.633,189.749 169.722,189.989 169.457 C 190.249 169.169,190.407 168.373,190.407 167.346 C 190.407 165.891,190.475 165.698,190.988 165.698 C 191.601 165.698,191.771 165.275,191.279 164.971 C 190.610 164.558,190.945 162.032,191.715 161.681 C 192.372 161.382,192.442 161.183,192.442 159.619 C 192.442 158.226,192.541 157.857,192.951 157.727 C 193.386 157.589,193.451 157.227,193.405 155.206 C 193.359 153.221,193.410 152.927,193.724 153.356 C 193.984 153.713,194.160 153.766,194.304 153.532 C 194.418 153.348,194.373 153.198,194.203 153.198 C 194.015 153.198,193.912 152.493,193.939 151.381 C 193.982 149.582,193.985 149.577,194.186 150.872 L 194.389 152.180 194.433 151.003 C 194.457 150.355,194.640 149.659,194.840 149.456 C 195.040 149.253,195.073 149.111,194.913 149.142 C 194.118 149.292,193.867 149.134,194.247 148.720 C 194.453 148.495,194.753 148.332,194.913 148.356 C 195.073 148.381,195.246 147.885,195.297 147.255 C 195.349 146.613,195.605 145.948,195.878 145.743 C 196.310 145.420,196.291 145.397,195.712 145.543 C 195.196 145.673,195.058 145.584,195.058 145.123 C 195.058 144.524,195.775 144.056,196.247 144.348 C 196.691 144.622,196.542 142.140,196.088 141.686 C 195.548 141.146,195.767 140.574,196.673 140.162 C 197.452 139.807,197.617 138.733,197.102 137.379 C 196.766 136.496,197.807 135.620,198.288 136.380 C 198.446 136.628,198.539 136.223,198.542 135.278 C 198.545 134.214,198.421 133.735,198.110 133.616 C 197.871 133.524,197.674 133.323,197.674 133.169 C 197.674 132.695,198.576 131.961,198.907 132.165 C 199.126 132.301,199.165 131.767,199.037 130.394 C 198.867 128.575,198.898 128.418,199.454 128.273 C 199.997 128.131,200.044 127.934,199.954 126.195 C 199.855 124.287,199.860 124.273,200.654 124.181 C 201.585 124.074,201.820 122.418,201.017 121.615 C 200.396 120.994,200.474 120.676,201.344 120.279 C 202.078 119.945,202.101 119.863,201.940 118.137 C 201.778 116.405,202.785 115.123,203.310 116.394 C 203.383 116.571,203.453 116.101,203.465 115.351 C 203.478 114.601,203.358 113.907,203.198 113.808 C 202.626 113.455,202.898 112.565,203.634 112.381 C 204.414 112.185,204.724 110.073,204.069 109.418 C 203.873 109.222,203.929 108.939,204.236 108.560 C 204.488 108.249,204.612 108.156,204.512 108.354 C 204.401 108.575,204.479 108.657,204.716 108.566 C 204.975 108.467,205.065 108.038,204.991 107.261 C 204.914 106.451,204.994 106.105,205.258 106.105 C 205.498 106.105,205.451 105.970,205.127 105.734 C 204.444 105.234,204.801 104.307,205.632 104.421 C 206.177 104.496,206.260 104.344,206.339 103.125 C 206.395 102.244,206.309 101.744,206.100 101.744 C 205.921 101.744,205.815 101.450,205.866 101.090 C 205.934 100.616,206.156 100.434,206.676 100.430 C 207.342 100.425,207.387 100.333,207.312 99.122 L 207.232 97.820 208.485 97.820 C 209.387 97.820,209.715 97.709,209.655 97.426 C 209.440 96.399,211.670 95.960,212.631 96.840 C 213.085 97.256,213.372 97.129,213.372 96.512 C 213.372 95.983,214.125 95.728,215.189 95.896 C 215.309 95.915,215.407 95.734,215.407 95.494 C 215.407 95.254,215.546 95.058,215.715 95.058 C 215.884 95.058,215.942 94.927,215.843 94.767 C 215.744 94.608,215.802 94.477,215.971 94.477 C 216.141 94.477,216.246 94.314,216.206 94.115 C 216.157 93.870,216.484 93.775,217.224 93.818 C 217.827 93.853,218.314 93.747,218.314 93.579 C 218.314 93.413,218.699 92.952,219.171 92.556 C 219.642 92.159,220.108 91.579,220.208 91.266 C 220.447 90.513,223.078 90.431,223.488 91.164 C 223.839 91.792,226.287 92.070,226.909 91.553 C 227.464 91.093,227.995 91.671,227.793 92.515 C 227.691 92.937,227.877 93.024,228.879 93.028 C 230.098 93.032,230.883 93.325,230.841 93.760 C 230.828 93.890,231.602 93.964,232.560 93.925 C 233.928 93.869,234.302 93.946,234.302 94.280 C 234.302 94.822,234.926 95.058,236.361 95.058 C 237.117 95.058,237.476 95.180,237.427 95.422 C 237.377 95.674,237.976 95.829,239.390 95.930 C 240.728 96.026,241.402 96.192,241.359 96.417 C 241.312 96.662,241.757 96.711,242.930 96.590 C 244.288 96.450,244.525 96.491,244.321 96.830 C 244.111 97.178,244.149 97.178,244.581 96.827 C 245.021 96.470,245.151 96.479,245.571 96.900 C 245.970 97.299,245.980 97.385,245.629 97.388 C 245.262 97.392,245.264 97.432,245.640 97.674 C 245.879 97.829,246.535 97.958,247.096 97.961 C 247.753 97.964,248.230 98.148,248.437 98.479 C 248.779 99.027,251.453 99.061,251.453 98.517 C 251.453 97.980,252.673 98.265,252.823 98.837 C 252.942 99.293,253.219 99.419,254.104 99.419 C 255.027 99.419,255.233 99.521,255.233 99.983 C 255.233 101.034,256.561 101.233,258.664 100.498 C 259.744 100.121,260.221 100.485,259.960 101.486 C 259.836 101.958,259.982 102.035,261.013 102.035 C 261.867 102.035,262.209 102.156,262.209 102.458 C 262.209 102.782,262.705 102.902,264.317 102.967 C 266.116 103.040,266.419 103.127,266.384 103.561 C 266.351 103.980,266.588 104.070,267.734 104.070 C 268.605 104.070,269.178 104.211,269.269 104.447 C 269.463 104.952,271.626 105.057,272.363 104.597 C 272.824 104.309,273.027 104.306,273.304 104.583 C 273.740 105.019,273.880 105.814,273.521 105.814 C 273.050 105.814,273.209 108.431,273.692 108.616 C 273.976 108.725,274.128 109.177,274.128 109.915 C 274.128 110.656,274.327 111.246,274.704 111.623 C 275.021 111.940,275.311 112.594,275.348 113.076 C 275.385 113.563,275.581 113.953,275.789 113.953 C 275.994 113.953,276.163 114.150,276.163 114.390 C 276.163 114.640,276.425 114.826,276.778 114.826 C 277.278 114.826,277.367 114.962,277.254 115.552 C 277.178 115.952,277.236 116.279,277.383 116.279 C 277.530 116.279,277.570 116.410,277.471 116.570 C 277.372 116.730,277.495 116.860,277.744 116.860 C 277.994 116.860,278.198 117.043,278.198 117.265 C 278.198 117.488,278.394 117.746,278.634 117.838 C 278.874 117.930,279.070 118.205,279.070 118.450 C 279.070 118.695,279.182 118.895,279.320 118.895 C 279.458 118.895,279.510 118.577,279.435 118.188 C 279.320 117.586,279.391 117.504,279.912 117.640 C 280.248 117.728,280.523 117.965,280.523 118.167 C 280.523 118.369,280.718 118.695,280.956 118.893 C 281.194 119.090,281.304 119.401,281.200 119.582 C 281.096 119.764,281.118 119.816,281.249 119.697 C 281.380 119.579,281.663 119.627,281.877 119.806 C 282.173 120.051,282.267 120.029,282.267 119.716 C 282.267 119.469,282.560 119.302,282.994 119.302 C 283.660 119.302,283.882 119.693,283.770 120.669 C 283.759 120.765,284.052 120.786,284.421 120.716 C 284.919 120.621,285.134 120.745,285.252 121.195 C 285.419 121.834,288.997 122.147,289.363 121.554 C 289.570 121.220,293.580 121.237,293.788 121.573 C 294.137 122.138,297.965 121.727,297.965 121.124 C 297.965 120.678,298.130 120.598,298.834 120.701 C 299.489 120.797,299.744 120.698,299.871 120.298 C 300.026 119.809,300.494 119.634,301.359 119.741 C 301.547 119.764,301.796 119.628,301.913 119.440 C 302.035 119.241,302.000 119.173,301.829 119.279 C 301.667 119.379,301.791 118.941,302.106 118.306 C 302.724 117.057,302.910 116.967,303.770 117.504 C 304.483 117.949,304.731 117.700,304.767 116.502 C 304.789 115.786,304.922 115.562,305.305 115.593 C 305.585 115.615,305.814 115.460,305.814 115.249 C 305.814 115.038,306.083 114.779,306.412 114.675 C 306.980 114.495,306.986 114.447,306.538 113.764 C 305.982 112.914,306.371 112.182,307.286 112.358 C 307.740 112.446,307.849 112.301,307.849 111.611 C 307.849 111.038,307.995 110.756,308.292 110.756 C 308.551 110.756,308.807 110.396,308.909 109.890 C 309.004 109.414,309.262 108.875,309.483 108.692 C 310.187 108.107,310.053 100.581,309.338 100.581 C 308.865 100.581,308.812 100.411,308.937 99.300 C 309.056 98.246,308.972 97.925,308.465 97.491 C 308.123 97.198,307.849 96.619,307.849 96.187 C 307.849 95.760,307.665 95.340,307.440 95.254 C 307.215 95.168,306.943 94.696,306.836 94.206 C 306.728 93.715,306.454 93.314,306.227 93.314 C 306.000 93.314,305.814 93.068,305.814 92.766 C 305.814 92.455,305.551 92.150,305.203 92.059 C 304.867 91.971,304.670 91.775,304.764 91.622 C 304.858 91.470,304.662 91.274,304.328 91.186 C 303.994 91.099,303.799 90.901,303.895 90.746 C 303.991 90.590,303.677 90.327,303.197 90.160 C 302.718 89.993,302.326 89.718,302.326 89.550 C 302.326 89.382,301.999 89.244,301.599 89.244 C 301.157 89.244,300.872 89.079,300.872 88.821 C 300.872 88.568,300.464 88.322,299.855 88.208 C 299.295 88.103,298.837 87.863,298.837 87.675 C 298.837 87.250,297.198 87.095,296.950 87.497 C 296.850 87.658,296.510 87.791,296.194 87.791 C 295.524 87.791,294.949 86.602,295.458 86.269 C 295.638 86.152,293.888 86.055,291.570 86.055 C 289.251 86.055,287.502 86.152,287.681 86.269 C 288.190 86.602,287.615 87.791,286.945 87.791 C 286.630 87.791,286.291 87.660,286.192 87.500 C 285.925 87.068,284.388 87.148,284.213 87.604 C 284.130 87.821,283.658 88.079,283.165 88.178 C 282.633 88.284,282.267 88.538,282.267 88.801 C 282.267 89.045,282.032 89.244,281.744 89.244 C 281.456 89.244,281.045 89.408,280.829 89.608 C 280.511 89.903,280.483 89.889,280.681 89.535 C 280.814 89.295,280.574 89.426,280.147 89.826 C 279.720 90.225,279.368 90.716,279.365 90.916 C 279.361 91.246,278.985 91.403,278.416 91.313 C 278.296 91.295,278.198 91.548,278.198 91.878 C 278.198 92.207,278.081 92.404,277.937 92.315 C 277.794 92.227,277.607 92.338,277.521 92.562 C 277.321 93.082,273.836 93.341,273.837 92.836 C 273.838 92.083,271.514 91.884,270.930 92.587 C 270.375 93.256,268.901 92.557,269.346 91.837 C 269.437 91.690,268.980 91.570,268.331 91.570 C 267.489 91.570,267.151 91.448,267.151 91.144 C 267.151 90.166,264.589 89.730,263.754 90.565 C 263.169 91.150,262.702 90.975,262.497 90.095 C 262.365 89.530,262.119 89.372,261.267 89.300 C 260.517 89.237,260.150 89.044,260.024 88.646 C 259.871 88.164,259.571 88.081,257.975 88.081 C 256.459 88.081,256.105 87.994,256.105 87.619 C 256.105 87.232,255.774 87.172,254.057 87.252 C 251.892 87.352,250.631 86.729,252.116 86.294 C 252.497 86.182,252.016 86.093,250.945 86.075 C 249.536 86.053,249.128 85.948,249.128 85.610 C 249.128 85.281,248.773 85.174,247.674 85.174 C 246.875 85.174,246.221 85.277,246.221 85.403 C 246.221 85.529,245.962 85.652,245.645 85.675 C 245.079 85.718,244.635 85.310,244.627 84.738 C 244.624 84.578,244.073 84.408,243.401 84.359 C 242.494 84.293,242.134 84.125,242.001 83.705 C 241.764 82.959,239.630 82.899,239.100 83.623 C 238.662 84.223,237.795 83.946,237.584 83.138 C 237.469 82.699,237.187 82.558,236.421 82.558 C 235.671 82.558,235.373 82.415,235.266 82.004 C 235.025 81.082,232.477 80.720,232.154 81.561 C 231.853 82.346,230.683 81.954,230.577 81.032 C 230.495 80.326,230.363 80.233,229.446 80.233 C 228.799 80.233,228.269 80.044,228.042 79.733 C 227.652 79.200,225.306 79.155,224.986 79.674 C 224.898 79.816,224.537 79.730,224.184 79.483 C 223.602 79.075,223.584 78.991,223.996 78.579 C 224.666 77.909,224.433 76.867,223.638 76.977 C 222.765 77.098,222.213 76.084,222.820 75.477 C 223.377 74.920,223.382 73.243,222.829 72.512 C 222.594 72.202,222.398 71.588,222.393 71.148 C 222.387 70.644,222.226 70.349,221.958 70.349 C 221.724 70.349,221.390 70.083,221.216 69.758 C 221.042 69.433,220.683 69.204,220.417 69.249 C 220.119 69.300,219.903 69.108,219.853 68.750 L 219.772 68.169 220.040 68.750 C 220.300 69.315,220.309 69.314,220.328 68.701 C 220.364 67.605,220.049 67.088,219.581 67.476 C 219.255 67.746,219.208 67.723,219.348 67.359 C 219.460 67.066,219.255 66.729,218.773 66.413 C 218.361 66.143,218.023 65.769,218.023 65.582 C 218.023 65.396,217.688 65.215,217.277 65.181 C 216.867 65.147,216.317 64.905,216.055 64.643 C 215.743 64.331,215.540 64.280,215.468 64.496 C 215.217 65.249,213.585 64.876,213.734 64.099 C 213.856 63.458,213.773 63.372,213.024 63.372 C 212.531 63.372,212.250 63.250,212.355 63.081 C 212.845 62.288,209.715 61.936,209.133 62.718 C 208.659 63.356,207.751 62.905,207.611 61.962 C 207.459 60.945,204.449 61.030,204.191 62.058 M208.616 74.564 C 208.708 74.804,208.951 75.000,209.157 75.000 C 209.363 75.000,209.606 75.196,209.698 75.436 C 209.790 75.676,210.072 75.872,210.323 75.872 C 210.596 75.872,210.747 76.075,210.696 76.374 C 210.649 76.650,210.774 76.896,210.974 76.919 C 211.174 76.943,211.483 76.979,211.662 76.999 C 211.847 77.019,211.927 77.347,211.847 77.762 C 211.731 78.371,211.820 78.488,212.395 78.488 C 213.287 78.488,213.301 79.284,212.425 80.218 C 211.923 80.753,211.793 81.180,211.874 82.029 C 211.932 82.640,211.851 83.140,211.693 83.140 C 211.347 83.140,209.283 85.153,208.837 85.927 C 208.465 86.571,207.344 86.821,206.885 86.362 C 206.446 85.922,205.850 85.969,205.336 86.483 C 204.615 87.203,203.830 87.026,203.726 86.119 C 203.654 85.496,203.461 85.300,202.850 85.229 C 202.308 85.167,202.116 85.010,202.227 84.721 C 202.326 84.464,202.208 84.302,201.921 84.302 C 201.594 84.302,201.453 84.037,201.453 83.421 C 201.453 82.906,201.272 82.470,201.017 82.373 C 200.089 82.016,200.425 77.459,201.453 76.453 C 201.933 75.985,202.326 75.466,202.326 75.300 C 202.326 75.135,202.508 75.000,202.731 75.000 C 202.953 75.000,203.211 74.804,203.303 74.564 C 203.434 74.223,204.015 74.128,205.959 74.128 C 207.904 74.128,208.485 74.223,208.616 74.564 M200.214 81.032 C 200.154 81.791,200.105 81.170,200.105 79.651 C 200.105 78.132,200.154 77.511,200.214 78.270 C 200.274 79.030,200.274 80.273,200.214 81.032 M291.664 97.965 C 292.587 97.965,292.976 98.113,293.264 98.574 C 293.631 99.162,293.663 99.165,294.223 98.659 C 294.948 98.002,295.782 98.424,295.790 99.452 C 295.795 99.981,295.955 100.145,296.468 100.145 C 297.456 100.145,298.098 101.116,297.527 101.747 C 297.219 102.087,297.093 102.896,297.093 104.537 C 297.093 106.504,297.005 106.923,296.499 107.356 C 296.173 107.636,295.975 107.977,296.060 108.114 C 296.145 108.252,295.990 108.347,295.716 108.325 C 295.442 108.303,295.208 108.481,295.197 108.721 C 295.186 108.961,295.008 109.121,294.802 109.076 C 294.596 109.031,294.366 109.228,294.292 109.512 C 294.173 109.970,293.845 110.019,291.417 109.937 C 289.909 109.886,288.706 109.755,288.742 109.646 C 288.827 109.391,287.582 108.140,287.243 108.140 C 287.102 108.140,286.915 107.865,286.827 107.529 C 286.739 107.193,286.528 107.004,286.357 107.110 C 286.169 107.226,286.047 107.022,286.047 106.594 C 286.047 106.041,285.857 105.849,285.174 105.712 C 284.308 105.539,284.003 104.871,284.617 104.491 C 284.789 104.384,284.852 103.982,284.755 103.597 C 284.614 103.035,284.724 102.843,285.313 102.619 C 285.878 102.404,286.047 102.134,286.047 101.444 C 286.047 100.938,286.170 100.623,286.329 100.721 C 286.484 100.817,286.697 100.551,286.803 100.130 C 286.909 99.708,287.076 99.474,287.175 99.609 C 287.423 99.948,288.164 100.078,287.959 99.747 C 287.811 99.507,288.113 98.743,288.747 97.758 C 288.909 97.508,289.186 97.487,289.709 97.686 C 290.114 97.839,290.994 97.965,291.664 97.965 M274.624 110.534 C 274.555 110.896,274.495 110.669,274.492 110.029 C 274.489 109.390,274.546 109.094,274.618 109.372 C 274.691 109.650,274.694 110.173,274.624 110.534 M260.523 116.206 C 260.638 116.642,260.106 117.801,259.925 117.509 C 259.822 117.344,259.346 117.182,258.866 117.150 C 257.557 117.060,257.216 117.123,257.400 117.422 C 257.492 117.571,257.433 117.776,257.267 117.878 C 257.102 117.980,257.060 118.218,257.173 118.407 C 257.286 118.596,257.133 118.554,256.831 118.314 C 256.530 118.074,256.370 118.022,256.475 118.197 C 256.580 118.373,256.363 118.679,255.992 118.878 C 255.412 119.188,255.311 119.484,255.265 121.001 C 255.236 121.970,255.131 122.894,255.032 123.054 C 254.933 123.215,254.979 123.267,255.133 123.172 C 255.300 123.069,255.391 123.475,255.358 124.165 C 255.302 125.305,256.213 126.744,256.990 126.744 C 257.143 126.744,257.267 126.932,257.267 127.161 C 257.267 127.617,258.263 128.045,258.698 127.776 C 258.849 127.683,259.056 127.743,259.158 127.909 C 259.261 128.076,259.238 128.193,259.106 128.170 C 258.551 128.074,258.116 128.215,258.259 128.446 C 258.560 128.934,262.780 128.856,262.970 128.358 C 263.066 128.110,263.456 127.907,263.837 127.907 C 264.218 127.907,264.693 127.645,264.893 127.326 C 265.093 127.006,265.421 126.744,265.622 126.744 C 265.846 126.744,265.988 126.354,265.988 125.744 C 265.988 125.194,266.139 124.650,266.324 124.536 C 266.531 124.408,266.581 124.456,266.454 124.661 C 266.324 124.871,266.404 124.934,266.672 124.831 C 267.296 124.592,267.199 120.204,266.570 120.204 C 266.311 120.204,266.097 119.880,266.042 119.407 C 265.959 118.687,264.244 116.549,264.244 117.166 C 264.244 117.310,263.819 117.347,263.299 117.249 C 262.219 117.046,261.249 116.593,261.863 116.579 C 262.072 116.574,262.163 116.439,262.064 116.279 C 261.857 115.945,260.436 115.878,260.523 116.206 M200.370 127.035 C 200.370 127.754,200.427 128.049,200.496 127.689 C 200.565 127.329,200.565 126.741,200.496 126.381 C 200.427 126.021,200.370 126.315,200.370 127.035 M233.546 129.408 C 233.431 129.594,233.256 130.150,233.155 130.643 C 233.013 131.347,232.803 131.561,232.184 131.633 C 231.750 131.683,231.395 131.855,231.395 132.013 C 231.395 132.172,231.274 132.226,231.125 132.135 C 230.618 131.821,230.439 132.635,230.501 134.969 L 230.563 137.300 232.069 138.756 C 232.898 139.558,233.541 140.329,233.498 140.470 C 233.361 140.923,238.979 140.679,239.153 140.224 C 239.238 140.005,239.587 139.824,239.929 139.821 C 241.003 139.813,241.389 139.412,240.969 138.740 C 240.502 137.992,240.804 137.209,241.561 137.209 C 242.110 137.209,242.151 137.029,242.151 134.617 C 242.151 131.778,242.006 131.105,241.393 131.105 C 241.171 131.105,241.004 131.007,241.023 130.887 C 241.102 130.388,240.974 129.947,240.770 130.015 C 240.650 130.055,240.531 129.971,240.504 129.829 C 240.359 129.041,234.010 128.657,233.546 129.408 M209.717 141.374 C 209.627 141.610,209.106 141.887,208.560 141.990 C 208.013 142.092,207.580 142.268,207.597 142.382 C 207.759 143.484,207.514 144.298,207.160 143.832 C 206.827 143.393,206.775 143.479,206.734 144.529 C 206.708 145.188,206.832 145.901,207.010 146.115 C 207.191 146.333,207.235 146.729,207.111 147.017 C 206.780 147.784,206.479 150.564,206.746 150.399 C 206.873 150.321,206.977 150.395,206.977 150.564 C 206.977 150.734,207.140 150.839,207.340 150.799 C 207.550 150.757,207.665 150.954,207.611 151.265 C 207.561 151.560,207.639 151.728,207.786 151.638 C 207.932 151.547,208.338 151.802,208.687 152.204 C 209.644 153.304,214.869 153.245,215.378 152.129 C 215.555 151.739,215.830 151.501,215.989 151.599 C 216.155 151.702,216.247 151.492,216.206 151.107 C 216.147 150.562,216.256 150.453,216.788 150.527 C 217.226 150.588,217.442 150.468,217.442 150.164 C 217.442 149.914,217.638 149.709,217.878 149.709 C 218.224 149.709,218.314 149.289,218.314 147.674 C 218.314 145.878,218.250 145.640,217.768 145.640 C 216.875 145.640,216.401 144.858,216.928 144.253 C 217.417 143.691,217.305 143.023,216.722 143.023 C 216.513 143.023,216.266 142.827,216.174 142.587 C 216.082 142.347,215.801 142.151,215.549 142.151 C 215.274 142.151,215.125 141.948,215.176 141.642 C 215.295 140.937,209.985 140.676,209.717 141.374 M179.724 160.901 C 179.728 161.541,179.787 161.768,179.857 161.406 C 179.926 161.045,179.924 160.522,179.851 160.244 C 179.778 159.966,179.721 160.262,179.724 160.901 M163.459 165.202 C 163.336 165.395,163.234 165.680,163.231 165.837 C 163.229 165.993,162.864 166.149,162.421 166.183 C 161.976 166.217,161.690 166.122,161.784 165.971 C 161.878 165.819,161.485 165.698,160.901 165.698 C 160.274 165.698,159.922 165.815,160.029 165.988 C 160.128 166.148,160.062 166.279,159.884 166.279 C 159.705 166.279,159.630 166.395,159.718 166.537 C 159.806 166.678,159.617 166.862,159.299 166.946 C 158.981 167.029,158.721 167.305,158.721 167.560 C 158.721 167.815,158.525 168.023,158.285 168.023 C 157.785 168.023,157.663 169.618,158.140 169.913 C 158.524 170.150,158.516 172.384,158.130 172.384 C 157.785 172.384,157.852 174.386,158.205 174.604 C 158.334 174.684,158.788 174.813,159.214 174.890 C 160.304 175.088,160.465 175.233,160.465 176.014 C 160.465 177.283,161.190 177.651,163.567 177.588 C 165.247 177.543,165.693 177.443,165.576 177.137 C 165.474 176.873,165.659 176.744,166.140 176.744 C 166.541 176.744,167.015 176.488,167.219 176.163 C 167.418 175.843,167.822 175.581,168.116 175.581 C 168.559 175.581,168.618 175.432,168.459 174.709 C 168.345 174.190,168.386 173.837,168.561 173.837 C 169.769 173.837,170.039 169.110,168.849 168.799 C 168.408 168.684,168.289 168.448,168.360 167.826 C 168.429 167.213,168.343 167.036,168.020 167.125 C 166.720 167.483,166.134 167.298,166.042 166.497 C 165.969 165.869,165.798 165.698,165.242 165.698 C 164.853 165.698,164.535 165.581,164.535 165.438 C 164.535 165.009,163.698 164.825,163.459 165.202 M136.480 177.912 C 136.379 178.074,136.172 178.130,136.019 178.035 C 135.866 177.941,135.770 177.972,135.804 178.103 C 136.069 179.117,135.363 180.193,134.122 180.666 L 132.811 181.167 132.884 183.882 C 132.923 185.375,133.046 186.540,133.157 186.472 C 133.408 186.316,134.884 187.663,134.884 188.048 C 134.884 188.205,135.147 188.417,135.469 188.519 C 135.791 188.621,135.988 188.812,135.907 188.944 C 135.642 189.373,136.703 189.563,139.038 189.507 C 140.659 189.468,141.373 189.336,141.481 189.057 C 141.564 188.840,141.855 188.663,142.127 188.663 C 142.995 188.663,143.808 187.888,143.387 187.461 C 142.530 186.593,143.171 185.794,144.549 186.012 C 144.669 186.031,144.767 184.738,144.767 183.140 C 144.767 181.287,144.656 180.233,144.460 180.233 C 144.290 180.233,144.232 180.103,144.329 179.945 C 144.431 179.780,144.314 179.732,144.056 179.831 C 143.784 179.935,143.605 179.846,143.605 179.607 C 143.605 179.388,143.343 179.046,143.023 178.847 C 142.703 178.647,142.442 178.288,142.442 178.050 C 142.442 177.531,136.796 177.400,136.480 177.912 M175.233 195.116 C 175.496 195.380,175.663 195.383,175.917 195.130 C 176.382 194.664,177.326 195.207,177.326 195.940 C 177.326 196.356,177.524 196.512,178.052 196.512 C 178.517 196.512,178.779 196.675,178.779 196.965 C 178.779 197.214,178.910 197.337,179.070 197.238 C 179.230 197.140,179.360 197.197,179.360 197.367 C 179.360 197.536,179.553 197.674,179.787 197.674 C 180.035 197.674,180.148 197.846,180.058 198.083 C 179.952 198.358,180.186 198.554,180.773 198.683 C 181.253 198.788,181.768 199.030,181.917 199.219 C 182.252 199.645,182.261 200.612,181.928 200.406 C 181.795 200.324,181.686 201.049,181.686 202.018 C 181.686 203.663,181.569 203.903,180.802 203.834 C 180.716 203.826,180.697 204.268,180.761 204.817 C 180.848 205.560,180.767 205.814,180.443 205.814 C 179.961 205.814,179.070 207.014,179.070 207.662 C 179.070 208.262,178.300 208.468,177.893 207.977 C 177.639 207.671,176.865 207.558,175.029 207.558 C 172.406 207.558,171.512 207.147,171.512 205.939 C 171.512 205.691,171.387 205.566,171.236 205.660 C 171.084 205.753,170.818 205.566,170.645 205.244 C 170.473 204.921,170.172 204.688,169.977 204.727 C 169.243 204.871,169.342 199.522,170.077 199.329 C 170.420 199.240,170.612 199.028,170.506 198.857 C 170.394 198.675,170.563 198.547,170.913 198.547 C 171.242 198.547,171.496 198.448,171.477 198.328 C 171.385 197.745,171.547 197.391,171.875 197.456 C 172.075 197.496,172.239 197.267,172.240 196.948 C 172.242 196.485,172.405 196.385,173.040 196.460 C 173.658 196.532,173.837 196.431,173.837 196.009 C 173.837 195.488,174.343 194.767,174.709 194.767 C 174.805 194.767,175.041 194.924,175.233 195.116 M109.079 195.865 C 109.228 196.436,111.047 196.751,111.047 196.206 C 111.047 195.405,112.644 196.084,112.791 196.948 C 112.908 197.637,113.106 197.839,113.737 197.912 C 114.546 198.005,114.873 198.884,114.244 199.273 C 113.513 199.725,114.075 201.436,115.000 201.576 C 115.402 201.636,115.524 201.849,115.450 202.356 C 115.322 203.220,114.825 203.559,114.310 203.132 C 114.096 202.954,113.944 202.929,113.972 203.076 C 114.128 203.899,113.903 204.651,113.500 204.651 C 113.251 204.651,113.128 204.781,113.226 204.941 C 113.324 205.100,113.075 205.381,112.671 205.565 C 112.267 205.748,112.011 206.019,112.102 206.167 C 112.193 206.314,111.993 206.506,111.657 206.594 C 111.321 206.682,111.047 206.935,111.047 207.156 C 111.047 207.469,110.464 207.558,108.430 207.558 C 106.298 207.558,105.814 207.477,105.814 207.122 C 105.814 206.882,105.632 206.686,105.409 206.686 C 105.186 206.686,104.929 206.490,104.837 206.250 C 104.745 206.010,104.478 205.814,104.244 205.814 C 104.010 205.814,103.735 205.552,103.634 205.233 C 103.532 204.913,103.327 204.651,103.178 204.651 C 102.589 204.651,102.864 199.752,103.488 199.128 C 103.808 198.808,104.070 198.350,104.070 198.110 C 104.070 197.871,104.266 197.674,104.506 197.674 C 104.746 197.674,104.942 197.548,104.942 197.393 C 104.942 197.238,105.138 197.187,105.378 197.279 C 105.654 197.385,105.814 197.275,105.814 196.979 C 105.814 196.712,106.053 196.512,106.372 196.512 C 107.238 196.512,107.849 196.198,107.849 195.754 C 107.849 195.161,108.920 195.258,109.079 195.865 " stroke="none" fill="#5cc4dc" fill-rule="evenodd"></path><path id="path1" d="M202.980 61.550 C 202.780 61.620,202.616 61.782,202.616 61.912 C 202.616 62.238,203.439 62.524,203.605 62.255 C 203.820 61.908,203.380 61.412,202.980 61.550 M208.329 61.764 C 208.239 61.999,208.296 62.272,208.456 62.370 C 208.822 62.597,209.642 61.942,209.427 61.595 C 209.177 61.190,208.509 61.293,208.329 61.764 M214.244 63.787 C 214.244 64.056,214.493 64.244,214.850 64.244 C 215.558 64.244,215.458 63.565,214.729 63.423 C 214.442 63.368,214.244 63.516,214.244 63.787 M194.113 65.430 C 193.430 65.828,193.469 66.279,194.186 66.279 C 194.574 66.279,194.767 66.085,194.767 65.698 C 194.767 65.031,194.786 65.038,194.113 65.430 M189.957 70.295 C 189.438 70.668,189.533 71.221,190.116 71.221 C 190.436 71.221,190.698 71.032,190.698 70.802 C 190.698 70.284,190.326 70.030,189.957 70.295 M223.256 75.872 C 223.256 76.192,223.430 76.453,223.643 76.453 C 224.190 76.453,224.405 76.174,224.222 75.698 C 223.985 75.080,223.256 75.211,223.256 75.872 M224.474 78.801 C 224.532 78.973,224.703 79.113,224.855 79.113 C 225.007 79.113,225.178 78.973,225.235 78.801 C 225.292 78.629,225.121 78.488,224.855 78.488 C 224.588 78.488,224.417 78.629,224.474 78.801 M211.731 78.975 C 211.352 79.115,211.557 80.233,211.962 80.233 C 212.349 80.233,212.621 79.362,212.321 79.087 C 212.179 78.957,211.914 78.907,211.731 78.975 M231.105 80.835 C 231.105 81.580,232.067 81.496,232.213 80.738 C 232.280 80.389,232.123 80.233,231.707 80.233 C 231.291 80.233,231.105 80.419,231.105 80.835 M204.276 85.756 C 204.360 86.076,204.609 86.337,204.830 86.337 C 205.325 86.337,205.348 85.988,204.884 85.523 C 204.363 85.002,204.105 85.101,204.276 85.756 M286.531 86.240 C 286.424 86.347,286.337 86.609,286.337 86.822 C 286.337 87.336,287.104 87.320,287.304 86.802 C 287.538 86.190,286.984 85.787,286.531 86.240 M263.081 89.859 C 263.081 90.190,263.235 90.404,263.427 90.340 C 263.965 90.161,264.026 89.625,263.530 89.434 C 263.216 89.314,263.081 89.441,263.081 89.859 M269.979 91.165 C 269.698 91.446,270.089 92.151,270.525 92.151 C 270.748 92.151,270.930 92.036,270.930 91.896 C 270.930 91.533,270.184 90.960,269.979 91.165 M226.938 92.345 C 226.603 92.679,226.726 93.023,227.180 93.023 C 227.420 93.023,227.616 92.827,227.616 92.587 C 227.616 92.133,227.272 92.010,226.938 92.345 M210.562 97.557 C 210.562 97.781,210.736 97.965,210.950 97.965 C 211.163 97.965,211.337 97.848,211.337 97.706 C 211.337 97.563,211.163 97.379,210.950 97.297 C 210.736 97.215,210.562 97.332,210.562 97.557 M294.222 99.351 C 293.973 99.816,294.026 99.893,294.566 99.853 C 294.917 99.828,295.203 99.632,295.203 99.419 C 295.203 98.797,294.543 98.752,294.222 99.351 M295.930 101.062 C 295.930 101.296,296.060 101.408,296.218 101.310 C 296.382 101.208,296.431 101.325,296.332 101.584 C 296.220 101.876,296.323 102.035,296.626 102.035 C 297.303 102.035,297.205 100.969,296.512 100.788 C 296.126 100.687,295.930 100.779,295.930 101.062 M206.395 101.444 C 206.395 101.820,206.538 101.962,206.809 101.858 C 207.497 101.594,207.613 100.872,206.968 100.872 C 206.592 100.872,206.395 101.069,206.395 101.444 M258.220 101.463 C 258.274 102.180,259.106 102.111,259.248 101.377 C 259.314 101.033,259.159 100.872,258.760 100.872 C 258.352 100.872,258.189 101.050,258.220 101.463 M285.247 104.283 C 284.744 104.457,284.789 105.233,285.303 105.233 C 285.533 105.233,285.786 105.128,285.865 105.001 C 286.086 104.643,285.654 104.142,285.247 104.283 M205.523 105.523 C 205.523 105.843,205.676 106.105,205.862 106.105 C 206.049 106.105,206.115 106.019,206.010 105.913 C 205.905 105.808,205.965 105.547,206.143 105.332 C 206.391 105.033,206.356 104.942,205.995 104.942 C 205.717 104.942,205.523 105.181,205.523 105.523 M272.190 105.320 C 272.190 105.528,272.430 105.716,272.723 105.738 C 273.016 105.760,273.256 105.590,273.256 105.360 C 273.256 105.130,273.016 104.942,272.723 104.942 C 272.430 104.942,272.190 105.112,272.190 105.320 M204.554 108.915 C 204.448 109.021,204.362 109.316,204.365 109.569 C 204.369 109.943,204.417 109.954,204.623 109.628 C 204.779 109.382,205.029 109.320,205.273 109.466 C 205.603 109.665,205.602 109.623,205.270 109.213 C 204.815 108.653,204.816 108.653,204.554 108.915 M203.488 113.396 C 203.488 114.105,204.168 114.005,204.309 113.275 C 204.365 112.988,204.216 112.791,203.946 112.791 C 203.676 112.791,203.488 113.039,203.488 113.396 M306.977 113.196 C 306.977 113.418,307.164 113.673,307.393 113.761 C 307.674 113.868,307.796 113.736,307.768 113.356 C 307.720 112.718,306.977 112.568,306.977 113.196 M202.436 116.993 C 202.175 117.672,202.721 118.162,203.155 117.638 C 203.419 117.320,203.398 117.147,203.059 116.866 C 202.703 116.571,202.589 116.594,202.436 116.993 M282.010 120.410 C 282.384 121.110,283.140 121.072,283.140 120.352 C 283.140 119.918,282.964 119.788,282.435 119.832 C 281.855 119.880,281.780 119.982,282.010 120.410 M201.362 120.858 C 201.178 121.175,201.575 122.136,201.890 122.136 C 202.310 122.136,202.574 121.100,202.213 120.862 C 201.796 120.586,201.519 120.585,201.362 120.858 M289.300 122.311 C 289.353 122.591,289.590 122.820,289.826 122.820 C 290.061 122.820,290.298 122.591,290.352 122.311 C 290.420 121.954,290.263 121.802,289.826 121.802 C 289.388 121.802,289.231 121.954,289.300 122.311 M292.737 122.020 C 292.754 122.844,293.895 123.202,293.895 122.384 C 293.895 121.996,293.702 121.802,293.314 121.802 C 292.994 121.802,292.735 121.900,292.737 122.020 M200.642 124.922 C 200.354 125.025,200.345 125.151,200.605 125.464 C 201.042 125.991,201.453 125.986,201.453 125.453 C 201.453 124.944,201.145 124.742,200.642 124.922 M199.709 129.070 C 200.026 129.275,200.041 129.353,199.765 129.356 C 199.556 129.358,199.462 129.486,199.556 129.638 C 199.651 129.791,199.912 129.846,200.136 129.760 C 200.672 129.554,200.366 128.778,199.751 128.784 C 199.336 128.787,199.331 128.825,199.709 129.070 M231.589 130.136 C 231.189 130.536,231.417 131.105,231.977 131.105 C 232.364 131.105,232.558 130.911,232.558 130.523 C 232.558 129.963,231.989 129.735,231.589 130.136 M205.956 146.415 C 205.500 147.472,205.540 147.686,206.131 147.370 C 206.744 147.042,206.797 146.846,206.431 146.269 C 206.238 145.964,206.137 145.995,205.956 146.415 M177.998 166.206 C 178.034 166.934,178.779 167.125,178.779 166.407 C 178.779 166.158,178.659 166.028,178.513 166.118 C 178.367 166.209,178.184 166.118,178.107 165.918 C 178.029 165.717,177.981 165.847,177.998 166.206 M157.019 170.032 C 156.504 170.351,156.895 171.815,157.439 171.607 C 157.874 171.440,158.008 170.191,157.617 169.949 C 157.489 169.870,157.220 169.908,157.019 170.032 M176.938 169.961 C 176.584 170.315,176.738 170.930,177.180 170.930 C 177.422 170.930,177.616 170.672,177.616 170.349 C 177.616 169.770,177.307 169.593,176.938 169.961 M175.736 174.113 C 175.481 174.526,175.807 175.000,176.347 175.000 C 176.601 175.000,176.747 174.796,176.693 174.515 C 176.580 173.932,175.999 173.687,175.736 174.113 M174.709 178.192 C 174.709 178.870,175.548 179.204,175.774 178.616 C 175.967 178.112,175.759 177.822,175.137 177.730 C 174.895 177.695,174.709 177.896,174.709 178.192 M134.478 179.119 C 134.625 179.357,134.520 179.395,134.132 179.247 C 133.708 179.086,133.656 179.116,133.914 179.376 C 134.100 179.563,134.394 179.629,134.568 179.521 C 134.972 179.271,134.978 178.779,134.576 178.779 C 134.407 178.779,134.363 178.932,134.478 179.119 M173.728 182.134 C 173.466 182.816,173.485 182.849,174.149 182.849 C 174.556 182.849,174.721 182.691,174.658 182.364 C 174.529 181.701,173.949 181.557,173.728 182.134 M171.088 184.112 C 170.575 184.487,170.578 184.509,171.157 184.661 C 171.619 184.781,171.752 184.689,171.720 184.270 C 171.697 183.968,171.666 183.721,171.651 183.721 C 171.635 183.721,171.382 183.897,171.088 184.112 M143.605 187.200 C 143.605 187.845,144.327 187.729,144.590 187.041 C 144.695 186.770,144.552 186.628,144.177 186.628 C 143.801 186.628,143.605 186.825,143.605 187.200 M163.743 187.209 C 163.713 187.606,163.878 187.791,164.262 187.791 C 164.632 187.791,164.826 187.591,164.826 187.209 C 164.826 186.845,164.632 186.628,164.306 186.628 C 163.995 186.628,163.769 186.861,163.743 187.209 M161.840 189.265 C 162.024 189.971,162.791 190.004,162.791 189.306 C 162.791 189.005,162.560 188.769,162.242 188.745 C 161.835 188.715,161.731 188.849,161.840 189.265 M111.047 196.930 C 111.047 197.160,111.293 197.329,111.596 197.306 C 111.917 197.282,112.085 197.108,112.001 196.888 C 111.804 196.376,111.047 196.409,111.047 196.930 M113.081 198.965 C 113.081 199.660,113.613 199.765,113.949 199.136 C 114.218 198.634,114.177 198.547,113.673 198.547 C 113.348 198.547,113.081 198.735,113.081 198.965 M114.282 202.134 C 113.927 202.563,114.125 202.907,114.729 202.907 C 114.942 202.907,115.116 202.645,115.116 202.326 C 115.116 201.655,114.750 201.571,114.282 202.134 M192.442 207.886 C 192.442 208.361,192.535 208.401,193.023 208.140 C 193.343 207.968,193.605 207.783,193.605 207.727 C 193.605 207.671,193.343 207.558,193.023 207.474 C 192.589 207.360,192.442 207.465,192.442 207.886 M190.407 211.919 C 190.407 212.238,190.533 212.500,190.687 212.500 C 190.842 212.500,191.108 212.238,191.279 211.919 C 191.543 211.426,191.500 211.337,190.999 211.337 C 190.601 211.337,190.407 211.528,190.407 211.919 M159.934 212.003 C 159.700 212.285,159.752 212.388,160.141 212.418 C 160.426 212.439,160.659 212.270,160.659 212.042 C 160.659 211.527,160.344 211.510,159.934 212.003 M96.056 215.916 C 96.097 216.195,96.217 216.392,96.321 216.352 C 96.426 216.312,96.642 216.279,96.802 216.279 C 96.962 216.279,97.093 216.083,97.093 215.843 C 97.093 215.603,96.843 215.407,96.537 215.407 C 96.173 215.407,96.007 215.583,96.056 215.916 M105.451 219.386 C 104.625 219.602,104.799 220.586,105.634 220.427 C 106.146 220.329,106.289 220.150,106.182 219.740 C 106.102 219.435,106.019 219.201,105.998 219.220 C 105.977 219.238,105.730 219.313,105.451 219.386 " stroke="none" fill="#5cb4cc" fill-rule="evenodd"></path><path id="path2" d="M203.818 61.604 C 203.610 61.733,203.417 61.954,203.391 62.094 C 203.365 62.235,203.180 62.313,202.980 62.267 C 202.780 62.221,202.616 62.292,202.616 62.424 C 202.616 63.013,204.010 62.761,204.171 62.143 C 204.371 61.380,204.316 61.296,203.818 61.604 M207.558 61.883 C 207.558 62.183,207.753 62.590,207.990 62.788 C 208.454 63.172,209.302 62.998,209.302 62.518 C 209.302 62.358,209.098 62.306,208.849 62.402 C 208.546 62.518,208.342 62.370,208.234 61.956 C 208.034 61.191,207.558 61.140,207.558 61.883 M213.881 63.540 C 213.313 64.112,213.676 64.826,214.535 64.826 C 215.015 64.826,215.407 64.695,215.407 64.535 C 215.407 64.375,215.155 64.244,214.847 64.244 C 214.539 64.244,214.245 64.036,214.193 63.782 C 214.141 63.528,214.001 63.419,213.881 63.540 M194.770 65.837 C 194.571 66.360,194.353 66.508,193.977 66.376 C 193.575 66.234,193.534 66.274,193.793 66.556 C 194.303 67.109,195.213 66.673,195.282 65.844 C 195.359 64.914,195.122 64.912,194.770 65.837 M192.513 66.715 C 192.632 66.846,192.468 67.136,192.149 67.360 C 191.831 67.583,191.585 67.987,191.603 68.258 C 191.634 68.699,191.651 68.697,191.771 68.238 C 191.844 67.956,192.019 67.796,192.159 67.882 C 192.298 67.969,192.550 67.782,192.719 67.468 C 192.944 67.047,192.929 66.840,192.661 66.686 C 192.460 66.571,192.394 66.584,192.513 66.715 M190.698 70.862 C 190.698 71.241,190.518 71.433,190.189 71.407 C 189.801 71.376,189.671 71.607,189.639 72.384 C 189.609 73.144,189.632 73.199,189.731 72.602 C 189.819 72.073,190.042 71.802,190.391 71.802 C 191.212 71.802,191.673 71.087,191.137 70.643 C 190.770 70.337,190.698 70.373,190.698 70.862 M222.593 75.654 C 222.354 76.319,222.953 77.029,223.700 76.968 C 224.095 76.935,224.419 76.753,224.419 76.563 C 224.419 76.360,224.178 76.280,223.837 76.369 C 223.391 76.486,223.256 76.378,223.256 75.906 C 223.256 75.238,222.803 75.066,222.593 75.654 M200.105 79.651 C 200.105 81.170,200.154 81.791,200.214 81.032 C 200.274 80.273,200.274 79.030,200.214 78.270 C 200.154 77.511,200.105 78.132,200.105 79.651 M211.846 78.694 C 212.263 78.774,212.500 79.029,212.500 79.398 C 212.500 79.716,212.631 79.895,212.791 79.797 C 213.527 79.341,213.088 78.488,212.137 78.528 C 211.453 78.557,211.373 78.602,211.846 78.694 M224.103 79.383 C 224.503 79.716,224.880 79.846,224.979 79.685 C 225.075 79.531,225.609 79.349,226.167 79.281 C 227.056 79.174,227.030 79.161,225.954 79.172 C 225.280 79.180,224.637 79.094,224.525 78.982 C 224.413 78.871,224.115 78.783,223.861 78.789 C 223.518 78.796,223.579 78.947,224.103 79.383 M230.523 80.968 C 230.523 81.788,231.130 82.158,231.904 81.811 C 232.350 81.612,232.332 81.570,231.759 81.469 C 231.346 81.397,231.105 81.148,231.105 80.794 C 231.105 80.485,230.974 80.233,230.814 80.233 C 230.654 80.233,230.523 80.564,230.523 80.968 M211.701 82.122 C 211.704 82.762,211.764 82.989,211.834 82.627 C 211.903 82.266,211.900 81.743,211.828 81.465 C 211.755 81.187,211.698 81.483,211.701 82.122 M187.791 82.212 C 187.791 82.843,187.930 83.140,188.227 83.140 C 188.776 83.140,188.772 82.581,188.217 81.849 C 187.814 81.314,187.791 81.334,187.791 82.212 M236.347 82.475 C 237.062 82.552,237.459 82.780,237.655 83.226 C 237.941 83.877,238.969 84.112,239.150 83.567 C 239.321 83.054,237.611 82.265,236.438 82.316 L 235.320 82.365 236.347 82.475 M245.052 84.259 C 244.572 84.464,244.506 84.832,244.850 85.374 C 245.121 85.800,246.221 85.751,246.221 85.313 C 246.221 84.719,245.500 84.069,245.052 84.259 M203.717 86.047 C 203.787 86.526,204.016 86.919,204.224 86.919 C 205.031 86.919,205.522 86.540,205.490 85.943 C 205.463 85.451,205.428 85.427,205.323 85.828 C 205.142 86.520,204.464 86.473,204.276 85.756 C 204.036 84.839,203.575 85.079,203.717 86.047 M207.849 85.756 C 207.678 86.076,207.404 86.337,207.240 86.337 C 207.076 86.337,207.036 86.186,207.150 86.002 C 207.279 85.792,207.229 85.745,207.017 85.876 C 206.522 86.182,206.905 86.628,207.663 86.628 C 208.387 86.628,209.012 86.130,209.012 85.552 C 209.012 84.965,208.196 85.108,207.849 85.756 M189.026 85.870 C 189.306 86.082,189.535 86.405,189.535 86.587 C 189.535 86.983,190.014 87.028,190.245 86.654 C 190.575 86.121,190.042 85.465,189.286 85.474 C 188.585 85.483,188.562 85.518,189.026 85.870 M287.247 86.275 C 287.393 87.253,286.501 87.627,286.232 86.701 C 286.147 86.407,286.107 86.499,286.138 86.919 C 286.179 87.476,286.354 87.645,286.885 87.645 C 287.707 87.645,288.315 86.489,287.631 86.226 C 287.403 86.139,287.230 86.161,287.247 86.275 M295.374 86.327 C 294.856 86.659,295.620 87.834,296.292 87.738 C 296.896 87.653,296.983 87.435,296.839 86.355 C 296.801 86.073,295.800 86.054,295.374 86.327 M251.744 86.919 C 252.088 87.560,252.277 87.614,252.872 87.237 C 253.439 86.878,253.007 86.337,252.153 86.337 C 251.523 86.337,251.472 86.410,251.744 86.919 M296.542 87.005 C 296.169 87.378,295.790 87.089,296.067 86.643 C 296.174 86.469,296.394 86.410,296.557 86.511 C 296.756 86.633,296.751 86.796,296.542 87.005 M190.698 90.054 C 190.698 90.663,190.846 90.876,191.295 90.910 C 192.110 90.971,192.382 90.132,191.707 89.638 C 190.916 89.060,190.698 89.150,190.698 90.054 M262.468 90.025 C 262.785 91.210,264.267 90.964,264.235 89.732 C 264.230 89.544,264.093 89.618,263.930 89.898 C 263.539 90.570,263.163 90.542,262.936 89.826 C 262.657 88.946,262.229 89.129,262.468 90.025 M221.003 90.906 C 221.443 90.972,222.162 90.972,222.602 90.906 C 223.041 90.839,222.682 90.785,221.802 90.785 C 220.923 90.785,220.563 90.839,221.003 90.906 M267.151 91.279 C 267.151 91.439,267.682 91.570,268.331 91.570 C 268.980 91.570,269.437 91.690,269.346 91.837 C 268.875 92.599,270.386 93.248,270.967 92.533 C 271.316 92.104,271.303 92.066,270.862 92.231 C 270.346 92.425,269.603 91.541,269.971 91.172 C 270.072 91.071,269.479 90.988,268.653 90.988 C 267.827 90.988,267.151 91.119,267.151 91.279 M226.842 91.642 C 226.359 92.417,226.486 92.793,227.057 92.277 C 227.589 91.795,227.616 91.796,227.616 92.300 C 227.616 92.591,227.694 92.752,227.788 92.658 C 228.024 92.422,227.638 91.279,227.323 91.279 C 227.183 91.279,226.967 91.443,226.842 91.642 M216.245 93.885 C 216.226 93.971,216.226 94.139,216.245 94.259 C 216.264 94.379,216.141 94.477,215.971 94.477 C 215.802 94.477,215.744 94.608,215.843 94.767 C 215.942 94.927,216.284 95.058,216.604 95.058 C 216.924 95.058,217.110 94.936,217.018 94.788 C 216.926 94.639,216.984 94.435,217.146 94.334 C 217.309 94.234,217.442 94.057,217.442 93.940 C 217.442 93.700,216.297 93.647,216.245 93.885 M209.941 96.605 C 209.545 97.110,209.631 97.965,210.078 97.965 C 210.291 97.965,210.465 97.755,210.465 97.498 C 210.465 97.202,210.625 97.092,210.901 97.198 C 211.141 97.290,211.337 97.224,211.337 97.050 C 211.337 96.868,211.653 96.795,212.086 96.878 C 212.498 96.956,212.727 96.923,212.595 96.804 C 212.142 96.396,210.220 96.252,209.941 96.605 M243.211 96.718 C 244.105 96.803,244.455 96.980,244.565 97.399 C 244.659 97.759,244.961 97.963,245.394 97.961 C 245.941 97.957,245.989 97.900,245.640 97.674 C 245.297 97.453,245.289 97.392,245.602 97.388 C 245.904 97.385,245.922 97.288,245.677 96.993 C 245.473 96.748,244.727 96.602,243.679 96.602 C 242.428 96.603,242.310 96.632,243.211 96.718 M288.737 97.774 C 287.825 99.188,287.821 99.369,288.701 99.117 C 289.165 98.984,289.641 98.871,289.758 98.867 C 289.875 98.863,290.010 98.610,290.059 98.305 C 290.160 97.666,289.086 97.235,288.737 97.774 M207.347 98.837 C 207.347 99.557,207.403 99.851,207.473 99.491 C 207.542 99.132,207.542 98.543,207.473 98.183 C 207.403 97.823,207.347 98.118,207.347 98.837 M251.453 98.547 C 251.453 98.706,250.898 98.859,250.218 98.886 L 248.983 98.935 250.089 99.050 C 250.697 99.113,251.267 99.352,251.355 99.581 C 251.443 99.810,251.645 99.916,251.806 99.817 C 251.985 99.706,251.946 99.533,251.703 99.367 C 251.410 99.166,251.458 99.124,251.890 99.202 C 252.209 99.260,252.438 99.464,252.398 99.654 C 252.350 99.885,252.808 100.000,253.779 100.000 C 254.578 100.000,255.233 99.869,255.233 99.709 C 255.233 99.549,254.725 99.419,254.104 99.419 C 253.219 99.419,252.942 99.293,252.823 98.837 C 252.668 98.246,251.453 97.988,251.453 98.547 M294.380 98.450 C 294.031 98.799,294.176 99.064,294.695 99.023 C 295.014 98.998,295.188 99.172,295.163 99.491 C 295.114 100.115,295.594 100.165,295.827 99.560 C 296.128 98.775,294.955 97.875,294.380 98.450 M194.477 100.744 C 194.477 101.747,194.587 102.292,194.767 102.180 C 194.927 102.081,195.058 101.354,195.058 100.564 C 195.058 99.774,194.927 99.128,194.767 99.128 C 194.608 99.128,194.477 99.855,194.477 100.744 M296.047 100.336 C 295.951 100.493,296.147 100.692,296.482 100.780 C 296.847 100.875,297.093 101.175,297.093 101.523 C 297.093 102.013,297.164 102.047,297.537 101.738 C 297.914 101.425,297.922 101.281,297.590 100.782 C 297.160 100.135,296.322 99.892,296.047 100.336 M206.008 100.484 C 205.706 100.786,205.780 101.744,206.105 101.744 C 206.265 101.744,206.395 101.548,206.395 101.308 C 206.395 101.051,206.664 100.870,207.049 100.868 C 207.578 100.864,207.620 100.809,207.267 100.581 C 206.755 100.250,206.279 100.214,206.008 100.484 M258.430 100.581 C 258.078 100.809,258.119 100.864,258.648 100.868 C 259.107 100.871,259.302 101.046,259.302 101.453 C 259.302 102.170,259.767 102.222,259.948 101.526 C 260.237 100.410,259.452 99.921,258.430 100.581 M285.247 102.643 C 284.528 102.913,284.513 102.942,284.772 103.617 C 284.920 104.003,285.031 104.020,285.410 103.714 C 285.793 103.403,285.828 103.414,285.624 103.779 C 285.436 104.114,285.463 104.139,285.738 103.885 C 286.376 103.297,286.005 102.359,285.247 102.643 M204.816 104.851 C 204.520 105.621,205.034 105.761,205.720 105.097 L 206.353 104.484 205.676 104.428 C 205.277 104.395,204.924 104.568,204.816 104.851 M272.238 104.651 C 272.140 104.811,272.328 104.942,272.657 104.942 C 272.996 104.942,273.256 105.131,273.256 105.378 C 273.256 105.618,273.375 105.814,273.521 105.814 C 273.822 105.814,273.786 105.263,273.449 104.724 C 273.176 104.288,272.488 104.247,272.238 104.651 M284.450 104.753 C 284.297 105.108,284.356 105.379,284.623 105.548 C 285.235 105.935,285.950 105.865,285.950 105.418 C 285.950 105.184,285.742 105.076,285.443 105.154 C 285.121 105.238,284.891 105.092,284.810 104.751 C 284.687 104.231,284.676 104.231,284.450 104.753 M204.992 107.274 C 205.074 108.129,205.005 108.405,204.737 108.302 C 204.304 108.136,203.651 109.189,204.039 109.428 C 204.182 109.517,204.375 109.394,204.466 109.155 C 204.558 108.916,204.833 108.721,205.078 108.721 C 205.412 108.721,205.523 108.394,205.523 107.413 C 205.523 106.652,205.389 106.105,205.202 106.105 C 205.002 106.105,204.923 106.547,204.992 107.274 M192.532 108.576 C 192.534 109.535,192.588 109.892,192.653 109.370 C 192.717 108.847,192.716 108.062,192.650 107.626 C 192.583 107.189,192.530 107.616,192.532 108.576 M274.465 109.787 C 274.440 110.294,274.343 110.948,274.251 111.241 C 274.093 111.743,274.103 111.744,274.415 111.258 C 274.596 110.975,274.693 110.321,274.628 109.805 L 274.512 108.866 274.465 109.787 M203.416 112.410 C 202.842 112.560,202.729 113.518,203.247 113.839 C 203.479 113.982,203.525 113.887,203.391 113.538 C 203.252 113.175,203.363 112.984,203.778 112.875 C 204.098 112.791,204.360 112.607,204.360 112.466 C 204.360 112.198,204.252 112.191,203.416 112.410 M306.372 112.673 C 306.010 113.109,306.456 113.953,307.048 113.953 C 307.211 113.953,307.181 113.763,306.979 113.520 C 306.682 113.162,306.739 113.040,307.307 112.812 C 307.685 112.661,307.929 112.519,307.849 112.496 C 307.070 112.278,306.659 112.327,306.372 112.673 M304.851 115.595 C 304.423 116.022,304.648 116.904,305.160 116.805 C 305.440 116.751,305.669 116.458,305.669 116.154 C 305.669 115.576,305.194 115.251,304.851 115.595 M202.411 116.221 C 201.804 116.311,201.779 116.418,201.944 118.187 C 202.048 119.302,202.007 120.058,201.842 120.058 C 201.223 120.058,200.555 120.814,200.742 121.301 C 200.848 121.577,201.065 121.802,201.225 121.802 C 201.385 121.802,201.436 121.594,201.338 121.339 C 201.220 121.031,201.354 120.826,201.743 120.724 C 202.274 120.585,202.593 118.940,202.346 117.617 C 202.217 116.931,202.621 116.502,203.056 116.863 C 203.294 117.061,203.486 117.108,203.484 116.969 C 203.475 116.439,203.029 116.129,202.411 116.221 M259.480 116.446 C 259.162 117.273,260.044 117.815,260.407 117.017 C 260.578 116.643,260.638 116.259,260.543 116.163 C 260.217 115.837,259.656 115.987,259.480 116.446 M264.680 117.442 C 264.780 117.603,264.561 117.735,264.189 117.737 C 263.663 117.740,263.610 117.800,263.944 118.011 C 264.214 118.182,264.507 118.167,264.743 117.971 C 265.195 117.596,265.231 117.151,264.808 117.151 C 264.639 117.151,264.581 117.282,264.680 117.442 M302.130 118.256 L 301.584 119.360 302.243 119.055 C 302.606 118.887,302.903 118.586,302.905 118.387 C 302.908 117.837,303.429 117.951,303.567 118.532 C 303.683 119.015,303.700 119.015,303.912 118.528 C 304.556 117.046,302.857 116.787,302.130 118.256 M279.416 118.119 C 279.471 118.508,279.747 118.784,280.137 118.840 C 280.964 118.958,280.745 117.858,279.898 117.637 C 279.443 117.518,279.344 117.616,279.416 118.119 M189.625 120.494 C 189.627 121.453,189.681 121.811,189.746 121.288 C 189.810 120.766,189.809 119.981,189.743 119.544 C 189.676 119.107,189.623 119.535,189.625 120.494 M282.267 119.515 C 282.267 119.654,282.464 119.767,282.703 119.767 C 282.943 119.767,283.140 119.996,283.140 120.276 C 283.141 120.662,283.404 120.796,284.230 120.831 C 285.086 120.868,285.166 120.834,284.604 120.675 C 284.210 120.564,283.817 120.216,283.732 119.902 C 283.579 119.343,282.267 118.996,282.267 119.515 M289.242 121.660 C 289.021 121.926,289.129 121.979,289.678 121.874 C 290.246 121.765,290.407 121.855,290.407 122.277 C 290.407 122.724,290.631 122.820,291.669 122.820 C 292.728 122.820,292.909 122.738,292.798 122.311 C 292.701 121.942,292.838 121.802,293.297 121.802 C 293.645 121.802,293.861 121.691,293.776 121.554 C 293.534 121.163,289.578 121.255,289.242 121.660 M199.917 124.308 C 199.818 124.406,199.814 125.302,199.907 126.299 C 200.063 127.967,200.028 128.123,199.465 128.270 C 198.896 128.419,198.866 128.565,199.037 130.394 C 199.165 131.767,199.126 132.301,198.907 132.165 C 198.583 131.965,197.674 132.691,197.674 133.150 C 197.674 133.293,197.948 133.556,198.283 133.736 C 198.827 134.027,198.872 133.996,198.700 133.455 C 198.593 133.118,198.636 132.849,198.796 132.849 C 198.955 132.849,199.145 133.078,199.218 133.358 C 199.291 133.637,199.366 132.722,199.385 131.323 C 199.412 129.270,199.503 128.779,199.855 128.779 C 200.263 128.779,200.488 127.005,200.306 125.218 C 200.272 124.881,200.457 124.709,200.854 124.709 C 201.184 124.709,201.453 124.578,201.453 124.419 C 201.453 124.104,200.211 124.014,199.917 124.308 M187.027 130.368 C 186.937 130.603,186.931 130.963,187.014 131.168 C 187.096 131.373,187.174 131.239,187.186 130.869 C 187.201 130.440,187.330 130.273,187.545 130.406 C 187.753 130.534,187.802 130.485,187.673 130.277 C 187.397 129.830,187.225 129.854,187.027 130.368 M232.740 130.451 C 232.613 130.827,232.280 131.105,231.957 131.105 C 231.648 131.105,231.395 131.235,231.395 131.395 C 231.395 131.850,232.848 131.736,233.028 131.267 C 233.116 131.036,233.137 130.611,233.075 130.322 C 232.977 129.869,232.931 129.886,232.740 130.451 M185.874 134.996 C 185.789 135.217,185.763 135.970,185.816 136.667 C 185.911 137.895,185.918 137.882,186.053 136.264 C 186.194 134.567,186.152 134.270,185.874 134.996 M197.338 136.345 C 196.725 136.703,196.953 137.656,197.664 137.710 C 198.206 137.751,198.553 137.073,198.330 136.410 C 198.185 135.980,197.986 135.967,197.338 136.345 M240.803 137.645 C 240.711 137.885,240.712 138.281,240.805 138.524 C 241.034 139.121,242.016 138.528,242.074 137.758 C 242.124 137.087,241.053 136.993,240.803 137.645 M185.069 138.452 C 184.763 138.676,184.634 139.014,184.745 139.302 C 184.916 139.747,184.969 139.747,185.488 139.303 C 186.488 138.446,186.114 137.688,185.069 138.452 M196.601 140.173 C 195.421 140.743,195.537 141.985,196.740 141.670 C 197.217 141.546,197.384 141.285,197.384 140.664 C 197.384 140.203,197.351 139.834,197.311 139.845 C 197.271 139.856,196.952 140.003,196.601 140.173 M236.192 140.698 L 233.866 140.882 236.265 140.935 C 237.705 140.967,238.663 140.872,238.663 140.698 C 238.663 140.538,238.630 140.431,238.590 140.460 C 238.550 140.490,237.471 140.596,236.192 140.698 M183.915 142.054 C 183.525 142.444,183.714 143.554,184.160 143.489 C 184.829 143.391,185.272 142.824,185.077 142.316 C 184.898 141.850,184.262 141.707,183.915 142.054 M206.899 143.605 C 207.173 143.924,207.433 144.186,207.477 144.186 C 207.522 144.186,207.558 143.924,207.558 143.605 C 207.558 143.218,207.364 143.023,206.980 143.023 C 206.429 143.023,206.425 143.051,206.899 143.605 M206.499 145.613 C 206.606 146.768,206.591 147.650,206.467 147.573 C 206.342 147.496,206.303 147.978,206.380 148.644 C 206.501 149.690,206.533 149.736,206.615 148.983 C 206.667 148.503,206.851 147.751,207.024 147.311 C 207.259 146.712,207.248 146.402,206.979 146.078 C 206.781 145.840,206.678 145.245,206.750 144.757 C 206.821 144.269,206.750 143.790,206.592 143.692 C 206.405 143.576,206.372 144.251,206.499 145.613 M216.860 144.331 C 216.408 144.877,216.937 145.640,217.768 145.640 C 218.068 145.640,218.314 145.443,218.314 145.203 C 218.314 144.964,218.183 144.767,218.023 144.767 C 217.863 144.767,217.733 144.629,217.733 144.460 C 217.733 144.290,217.884 144.245,218.068 144.359 C 218.276 144.488,218.325 144.439,218.196 144.231 C 217.909 143.765,217.292 143.812,216.860 144.331 M195.422 144.380 C 194.774 144.639,194.976 145.729,195.640 145.555 C 196.026 145.454,196.158 145.516,196.033 145.739 C 195.892 145.992,195.935 145.993,196.206 145.743 C 196.915 145.089,196.304 144.027,195.422 144.380 M182.740 147.740 C 182.907 149.849,183.140 150.347,183.140 148.595 C 183.140 147.734,183.261 147.384,183.558 147.384 C 184.109 147.384,184.347 146.967,184.127 146.393 C 183.575 144.955,182.595 145.908,182.740 147.740 M195.340 147.093 C 195.265 147.813,195.073 148.381,194.913 148.356 C 194.272 148.257,193.947 149.020,194.486 149.357 C 195.296 149.863,195.687 149.136,195.574 147.335 L 195.477 145.785 195.340 147.093 M182.044 150.291 C 181.538 151.101,181.600 151.705,182.179 151.620 C 182.976 151.503,183.352 150.669,182.838 150.156 C 182.450 149.767,182.362 149.782,182.044 150.291 M193.895 151.405 C 193.895 152.417,194.023 153.198,194.189 153.198 C 194.374 153.198,194.412 152.581,194.294 151.526 C 194.040 149.279,193.895 149.235,193.895 151.405 M193.345 154.850 C 193.315 155.926,193.354 156.743,193.430 156.667 C 193.627 156.469,193.736 153.232,193.551 153.047 C 193.467 152.963,193.374 153.775,193.345 154.850 M181.105 154.360 C 181.105 154.699,180.974 154.895,180.814 154.797 C 180.633 154.685,180.523 155.230,180.523 156.233 C 180.523 157.229,180.399 157.849,180.199 157.849 C 180.017 157.849,179.941 158.105,180.026 158.431 C 180.112 158.759,180.058 158.938,179.901 158.841 C 179.731 158.736,179.695 159.213,179.806 160.076 C 179.906 160.850,179.855 161.810,179.693 162.209 C 179.471 162.754,179.393 162.804,179.379 162.407 C 179.363 161.936,179.312 161.926,178.924 162.313 C 178.631 162.607,178.504 163.255,178.537 164.296 C 178.575 165.501,178.611 165.608,178.698 164.780 C 178.787 163.942,178.961 163.680,179.522 163.539 C 180.178 163.375,180.233 163.226,180.233 161.596 C 180.233 160.119,180.339 159.744,180.887 159.295 C 181.450 158.833,181.490 158.676,181.177 158.162 C 180.574 157.172,180.703 155.523,181.385 155.523 C 182.207 155.523,182.760 154.415,182.062 154.166 C 181.775 154.064,181.443 153.927,181.323 153.862 C 181.203 153.798,181.105 154.022,181.105 154.360 M191.022 163.282 C 191.004 164.112,191.089 164.853,191.212 164.929 C 191.335 165.005,191.393 164.522,191.342 163.856 C 191.191 161.900,191.058 161.662,191.022 163.282 M162.064 165.048 C 161.458 165.493,161.676 166.241,162.396 166.185 C 162.779 166.156,163.101 166.001,163.112 165.842 C 163.122 165.683,163.267 165.389,163.432 165.189 C 163.771 164.781,162.593 164.659,162.064 165.048 M166.352 165.890 C 165.909 166.069,165.871 167.044,166.296 167.307 C 166.857 167.654,168.114 167.175,167.761 166.749 C 167.588 166.541,167.544 166.269,167.662 166.144 C 167.781 166.018,167.567 166.012,167.187 166.129 C 166.714 166.275,166.559 166.240,166.696 166.020 C 166.910 165.673,166.900 165.669,166.352 165.890 M177.725 168.372 C 177.757 170.554,177.692 170.919,177.253 171.034 C 176.973 171.107,176.744 171.297,176.744 171.457 C 176.744 171.804,177.972 171.539,178.239 171.134 C 178.342 170.979,178.358 170.104,178.275 169.190 C 178.138 167.677,178.180 167.514,178.743 167.367 C 179.364 167.205,179.653 165.988,179.070 165.988 C 178.910 165.988,178.779 166.185,178.779 166.424 C 178.779 167.033,177.978 166.972,177.819 166.352 C 177.747 166.072,177.705 166.981,177.725 168.372 M157.778 170.576 C 157.872 171.220,157.750 171.472,157.220 171.727 C 156.806 171.926,156.711 172.063,156.977 172.078 C 157.364 172.099,157.364 172.134,156.977 172.389 C 156.644 172.608,156.712 172.647,157.267 172.551 C 157.667 172.483,158.100 172.417,158.229 172.405 C 158.579 172.373,158.336 169.975,157.971 169.855 C 157.778 169.792,157.703 170.070,157.778 170.576 M188.199 173.949 C 188.114 174.171,188.088 174.923,188.142 175.621 C 188.236 176.849,188.244 176.836,188.378 175.218 C 188.520 173.521,188.478 173.224,188.199 173.949 M176.744 174.394 C 176.744 174.931,176.623 175.036,176.146 174.911 C 175.766 174.812,175.589 174.879,175.662 175.096 C 175.724 175.283,176.090 175.436,176.474 175.436 C 177.243 175.436,177.603 174.580,177.062 174.039 C 176.832 173.809,176.744 173.907,176.744 174.394 M158.895 174.923 C 158.488 175.329,158.752 175.810,159.302 175.666 C 159.707 175.560,159.884 175.657,159.884 175.984 C 159.884 176.242,160.024 176.453,160.195 176.453 C 160.755 176.453,160.335 175.214,159.694 174.979 C 159.350 174.853,158.990 174.827,158.895 174.923 M175.704 178.272 C 175.717 178.625,175.574 178.917,175.388 178.919 C 174.808 178.928,174.716 179.203,174.674 181.054 C 174.636 182.728,174.492 183.008,173.737 182.874 C 173.602 182.850,173.549 182.998,173.619 183.203 C 173.766 183.635,175.050 183.523,175.343 183.053 C 175.452 182.878,175.419 182.507,175.270 182.230 C 174.716 181.194,174.947 179.769,175.727 179.413 C 176.525 179.050,176.666 178.445,176.068 177.949 C 175.766 177.699,175.687 177.769,175.704 178.272 M134.884 179.249 C 134.884 179.565,134.706 179.672,134.339 179.577 C 133.920 179.467,133.828 179.560,133.937 179.979 C 134.183 180.918,135.236 180.570,135.591 179.433 C 135.743 178.946,135.679 178.779,135.339 178.779 C 135.089 178.779,134.884 178.991,134.884 179.249 M112.057 184.023 C 111.639 184.699,112.942 185.370,113.953 184.999 C 114.855 184.668,114.574 184.379,113.541 184.575 C 113.394 184.603,113.415 184.455,113.588 184.246 C 113.833 183.949,113.716 183.859,113.047 183.835 C 112.577 183.818,112.132 183.902,112.057 184.023 M171.526 184.142 C 172.059 184.675,171.787 184.775,169.985 184.705 C 168.220 184.637,168.210 184.641,169.622 184.837 C 170.422 184.948,171.225 185.134,171.407 185.250 C 171.599 185.372,171.935 185.160,172.207 184.746 C 172.815 183.817,172.804 183.775,171.963 183.824 C 171.513 183.851,171.352 183.968,171.526 184.142 M143.677 185.979 C 143.003 186.090,142.759 187.012,143.314 187.355 C 143.474 187.453,143.605 187.350,143.605 187.126 C 143.605 186.901,143.891 186.589,144.241 186.433 C 144.980 186.103,144.631 185.822,143.677 185.979 M164.826 187.279 C 164.826 187.896,164.720 187.952,163.772 187.842 L 162.719 187.719 162.842 188.772 C 162.967 189.844,162.205 190.350,161.803 189.462 C 161.712 189.262,161.670 189.359,161.709 189.677 C 161.837 190.722,162.745 190.508,164.103 189.110 C 165.393 187.782,165.680 187.122,165.116 186.773 C 164.954 186.673,164.826 186.896,164.826 187.279 M96.221 188.227 C 96.221 188.626,95.866 188.796,95.255 188.690 C 95.123 188.667,95.098 188.783,95.200 188.947 C 95.455 189.360,96.512 188.772,96.512 188.217 C 96.512 187.982,96.446 187.791,96.366 187.791 C 96.286 187.791,96.221 187.987,96.221 188.227 M186.793 188.445 C 187.120 189.493,188.031 189.832,188.305 189.008 C 188.369 188.818,188.213 188.663,187.960 188.663 C 187.707 188.663,187.500 188.467,187.500 188.227 C 187.500 187.987,187.295 187.791,187.044 187.791 C 186.705 187.791,186.641 187.958,186.793 188.445 M174.186 195.116 C 173.182 196.120,174.315 196.858,175.622 196.051 C 175.834 195.919,175.884 195.966,175.755 196.176 C 175.615 196.402,175.838 196.512,176.436 196.512 C 177.126 196.512,177.326 196.384,177.326 195.940 C 177.326 195.207,176.382 194.664,175.917 195.130 C 175.663 195.383,175.496 195.380,175.233 195.116 C 175.041 194.924,174.805 194.767,174.709 194.767 C 174.613 194.767,174.378 194.924,174.186 195.116 M111.047 196.202 C 111.047 196.372,111.308 196.512,111.628 196.512 C 111.951 196.512,112.209 196.705,112.209 196.948 C 112.209 197.188,112.349 197.384,112.520 197.384 C 112.691 197.384,112.789 197.089,112.738 196.730 C 112.642 196.053,111.047 195.555,111.047 196.202 M193.255 202.011 C 193.338 206.434,193.318 206.617,192.748 206.766 C 192.021 206.956,191.665 207.770,192.113 208.217 C 192.358 208.462,192.442 208.380,192.442 207.894 C 192.442 207.434,192.592 207.267,192.951 207.327 C 193.502 207.420,193.934 198.179,193.404 197.647 C 193.274 197.517,193.207 199.481,193.255 202.011 M113.203 198.183 C 113.322 198.303,113.573 198.404,113.760 198.408 C 113.946 198.411,114.057 198.653,114.007 198.946 C 113.952 199.264,114.039 199.400,114.225 199.285 C 114.886 198.877,114.565 197.965,113.760 197.965 C 113.333 197.965,113.083 198.063,113.203 198.183 M180.523 199.265 C 180.523 200.003,180.767 200.259,181.625 200.424 C 182.233 200.541,182.428 199.611,181.885 199.192 C 181.021 198.527,180.523 198.554,180.523 199.265 M115.116 202.197 C 115.116 202.808,115.002 202.945,114.583 202.835 C 114.276 202.755,114.050 202.850,114.050 203.059 C 114.050 203.259,114.258 203.382,114.511 203.332 C 114.764 203.283,115.054 203.232,115.155 203.220 C 115.455 203.184,115.642 201.744,115.368 201.575 C 115.230 201.489,115.116 201.769,115.116 202.197 M103.502 204.797 C 103.494 205.262,103.879 205.694,104.506 205.925 C 105.001 206.107,105.024 206.083,104.664 205.759 C 104.432 205.549,104.076 205.182,103.874 204.942 C 103.672 204.702,103.505 204.637,103.502 204.797 M177.720 207.126 C 177.506 207.684,178.117 208.443,178.625 208.248 C 178.836 208.167,179.070 207.782,179.145 207.393 C 179.302 206.569,178.026 206.330,177.720 207.126 M133.918 208.357 C 138.424 208.402,145.880 208.402,150.488 208.357 C 155.096 208.312,151.410 208.276,142.297 208.276 C 133.183 208.275,129.413 208.312,133.918 208.357 M190.480 210.765 C 189.812 211.033,189.585 212.026,190.116 212.355 C 190.276 212.453,190.407 212.265,190.407 211.936 C 190.407 211.531,190.595 211.337,190.988 211.337 C 191.311 211.337,191.570 211.143,191.570 210.901 C 191.570 210.410,191.412 210.390,190.480 210.765 M159.884 211.032 C 159.884 211.184,160.061 211.413,160.277 211.541 C 160.494 211.669,160.740 211.969,160.825 212.209 C 160.953 212.574,161.013 212.562,161.189 212.137 C 161.305 211.857,161.324 211.432,161.232 211.192 C 161.050 210.719,159.884 210.580,159.884 211.032 M122.697 212.731 C 122.685 212.938,122.445 213.068,122.166 213.021 C 121.800 212.960,121.631 213.161,121.565 213.735 C 121.503 214.270,121.608 214.535,121.879 214.535 C 122.385 214.535,123.087 213.276,122.876 212.747 C 122.755 212.443,122.715 212.439,122.697 212.731 M161.822 213.857 C 161.513 214.165,161.597 214.879,161.919 214.680 C 162.078 214.581,162.209 214.628,162.209 214.784 C 162.209 214.940,162.060 215.118,161.877 215.179 C 161.694 215.240,162.005 215.302,162.569 215.318 C 163.477 215.344,163.575 215.277,163.435 214.723 C 163.208 213.821,162.329 213.349,161.822 213.857 M96.366 215.116 C 96.267 215.276,96.391 215.407,96.640 215.407 C 97.048 215.407,97.223 215.746,97.127 216.352 C 97.109 216.472,97.216 216.570,97.367 216.570 C 97.811 216.570,97.913 216.177,97.650 215.480 C 97.395 214.805,96.683 214.604,96.366 215.116 M116.374 217.400 C 116.280 217.759,115.918 218.037,115.450 218.109 C 115.027 218.174,115.376 218.246,116.227 218.270 C 117.673 218.311,117.767 218.272,117.680 217.663 C 117.558 216.807,116.581 216.610,116.374 217.400 M105.195 219.091 C 104.841 219.523,104.867 219.559,105.426 219.416 C 105.880 219.298,106.094 219.405,106.198 219.801 C 106.325 220.289,106.608 220.342,108.766 220.290 L 111.192 220.232 108.929 220.133 C 107.685 220.078,106.738 219.919,106.825 219.778 C 107.289 219.028,105.772 218.388,105.195 219.091 M177.502 219.818 C 177.576 219.938,176.553 220.081,175.228 220.138 L 172.820 220.240 175.492 220.258 C 177.265 220.270,178.207 220.162,178.293 219.938 C 178.364 219.753,178.185 219.601,177.895 219.601 C 177.605 219.601,177.429 219.699,177.502 219.818 " stroke="none" fill="#5cbcd4" fill-rule="evenodd"></path><path id="path3" d="M202.281 119.477 C 202.226 120.276,202.278 120.931,202.398 120.930 C 202.518 120.930,202.616 120.276,202.616 119.477 C 202.616 117.601,202.411 117.601,202.281 119.477 M158.915 175.775 C 158.540 176.150,158.726 176.521,159.123 176.191 C 159.433 175.934,159.564 175.959,159.695 176.301 C 159.789 176.545,160.033 176.734,160.238 176.721 C 160.530 176.703,160.532 176.667,160.247 176.552 C 160.047 176.471,159.884 176.220,159.884 175.993 C 159.884 175.570,159.260 175.430,158.915 175.775 M111.809 196.959 C 111.635 197.413,112.365 197.906,112.706 197.565 C 112.806 197.465,112.674 197.384,112.412 197.384 C 112.109 197.384,111.997 197.226,112.104 196.948 C 112.196 196.708,112.206 196.512,112.126 196.512 C 112.046 196.512,111.904 196.713,111.809 196.959 M107.205 220.563 C 108.049 220.622,109.357 220.622,110.111 220.562 C 110.866 220.502,110.174 220.454,108.576 220.455 C 106.977 220.456,106.360 220.505,107.205 220.563 M173.919 220.563 C 174.683 220.623,175.860 220.622,176.535 220.561 C 177.210 220.500,176.584 220.451,175.145 220.452 C 173.706 220.453,173.154 220.503,173.919 220.563 " stroke="none" fill="#5cbccc" fill-rule="evenodd"></path><path id="path4" d="M187.609 79.215 C 187.609 80.974,187.657 81.656,187.715 80.731 C 187.773 79.805,187.772 78.367,187.714 77.533 C 187.655 76.699,187.608 77.456,187.609 79.215 M211.424 81.686 C 211.424 82.565,211.479 82.925,211.545 82.485 C 211.612 82.046,211.612 81.326,211.545 80.887 C 211.479 80.447,211.424 80.807,211.424 81.686 M242.805 84.220 C 243.245 84.286,243.964 84.286,244.404 84.220 C 244.844 84.153,244.484 84.099,243.605 84.099 C 242.725 84.099,242.366 84.153,242.805 84.220 M190.336 89.680 C 190.412 90.080,190.525 90.407,190.586 90.407 C 190.648 90.407,190.698 90.080,190.698 89.680 C 190.698 89.281,190.585 88.953,190.447 88.953 C 190.310 88.953,190.259 89.281,190.336 89.680 M224.931 92.066 C 225.292 92.136,225.816 92.133,226.094 92.060 C 226.371 91.987,226.076 91.931,225.436 91.934 C 224.797 91.937,224.569 91.997,224.931 92.066 M231.909 94.106 C 232.432 94.171,233.217 94.169,233.653 94.103 C 234.090 94.037,233.663 93.984,232.703 93.985 C 231.744 93.987,231.387 94.041,231.909 94.106 M242.006 96.950 C 242.670 97.181,244.425 97.245,244.294 97.032 C 244.216 96.906,243.603 96.813,242.933 96.825 C 242.263 96.838,241.846 96.894,242.006 96.950 M256.617 101.078 C 256.978 101.147,257.502 101.145,257.780 101.072 C 258.057 100.999,257.762 100.942,257.122 100.945 C 256.483 100.949,256.255 101.008,256.617 101.078 M190.588 114.401 C 190.489 114.661,190.428 115.615,190.453 116.521 L 190.498 118.169 190.687 116.134 C 190.889 113.952,190.873 113.659,190.588 114.401 M262.721 117.066 C 263.083 117.136,263.606 117.133,263.884 117.060 C 264.162 116.987,263.866 116.931,263.227 116.934 C 262.587 116.937,262.360 116.997,262.721 117.066 M286.701 122.011 C 287.140 122.077,287.860 122.077,288.299 122.011 C 288.739 121.944,288.379 121.889,287.500 121.889 C 286.621 121.889,286.261 121.944,286.701 122.011 M294.700 122.013 C 295.222 122.078,296.007 122.076,296.444 122.010 C 296.881 121.944,296.453 121.891,295.494 121.892 C 294.535 121.894,294.177 121.948,294.700 122.013 M254.797 122.674 C 254.698 122.834,254.691 123.085,254.781 123.231 C 254.872 123.377,254.811 123.564,254.646 123.645 C 254.481 123.727,254.502 123.763,254.694 123.726 C 254.885 123.689,255.063 123.372,255.088 123.021 C 255.140 122.320,255.068 122.235,254.797 122.674 M187.587 128.488 C 187.587 129.368,187.642 129.727,187.708 129.288 C 187.775 128.848,187.775 128.129,187.708 127.689 C 187.642 127.249,187.587 127.609,187.587 128.488 M230.330 134.884 C 230.330 136.083,230.382 136.573,230.444 135.974 C 230.507 135.374,230.507 134.393,230.444 133.794 C 230.382 133.194,230.330 133.685,230.330 134.884 M185.451 136.838 C 185.371 137.514,185.417 137.955,185.552 137.820 C 185.687 137.685,185.753 137.132,185.697 136.592 C 185.598 135.635,185.592 135.641,185.451 136.838 M182.631 148.692 C 182.635 149.331,182.694 149.559,182.764 149.197 C 182.833 148.836,182.831 148.312,182.758 148.034 C 182.685 147.756,182.628 148.052,182.631 148.692 M191.397 162.031 C 191.312 162.252,191.286 163.004,191.340 163.702 C 191.434 164.930,191.441 164.917,191.576 163.299 C 191.717 161.602,191.675 161.305,191.397 162.031 M169.564 171.221 C 169.564 172.100,169.618 172.460,169.685 172.020 C 169.752 171.581,169.752 170.861,169.685 170.422 C 169.618 169.982,169.564 170.342,169.564 171.221 M188.462 175.436 C 188.464 176.395,188.518 176.753,188.583 176.230 C 188.647 175.708,188.646 174.923,188.580 174.486 C 188.513 174.049,188.461 174.477,188.462 175.436 M169.671 199.612 C 169.403 199.880,169.425 204.585,169.695 204.752 C 169.815 204.826,169.913 203.656,169.913 202.152 C 169.913 200.649,169.902 199.419,169.889 199.419 C 169.875 199.419,169.777 199.506,169.671 199.612 M180.620 203.920 C 180.620 204.267,180.710 204.283,181.080 204.002 C 181.334 203.810,181.595 203.616,181.662 203.571 C 181.728 203.525,181.521 203.488,181.202 203.488 C 180.881 203.488,180.620 203.682,180.620 203.920 M93.963 213.372 C 93.963 213.932,94.023 214.161,94.096 213.881 C 94.169 213.601,94.169 213.143,94.096 212.863 C 94.023 212.584,93.963 212.813,93.963 213.372 M166.593 217.951 C 166.577 218.390,166.737 218.603,167.078 218.600 C 167.392 218.597,167.465 218.514,167.267 218.382 C 167.092 218.265,166.873 217.972,166.782 217.733 C 166.671 217.441,166.608 217.514,166.593 217.951 " stroke="none" fill="#5cc4e0" fill-rule="evenodd"></path></g></svg>